999
Inkscape export via OpenSCAD DXF Export
  0
SECTION
  2
HEADER
  9
$ACADVER
  1
AC1014
  9
$HANDSEED
  5
FFFF
  9
$MEASUREMENT
 70
     1
  0
ENDSEC
  0
SECTION
  2
TABLES
  0
TABLE
  2
VPORT
  5
8
330
0
100
AcDbSymbolTable
 70
     4
  0
VPORT
  5
2E
330
8
100
AcDbSymbolTableRecord
100
AcDbViewportTableRecord
  2
*ACTIVE
 70
     0
 10
0.0
 20
0.0
 11
1.0
 21
1.0
 12
210.0
 22
148.5
 13
0.0
 23
0.0
 14
10.0
 24
10.0
 15
10.0
 25
10.0
 16
0.0
 26
0.0
 36
1.0
 17
0.0
 27
0.0
 37
0.0
 40
341.0
 41
1.24
 42
50.0
 43
0.0
 44
0.0
 50
0.0
 51
0.0
 71
     0
 72
   100
 73
     1
 74
     3
 75
     0
 76
     0
 77
     0
 78
     0
  0
ENDTAB
  0
TABLE
  2
LTYPE
  5
5
330
0
100
AcDbSymbolTable
 70
     1
  0
LTYPE
  5
14
330
5
100
AcDbSymbolTableRecord
100
AcDbLinetypeTableRecord
  2
BYBLOCK
 70
     0
  3

 72
    65
 73
     0
 40
0.0
  0
LTYPE
  5
15
330
5
100
AcDbSymbolTableRecord
100
AcDbLinetypeTableRecord
  2
BYLAYER
 70
     0
  3

 72
    65
 73
     0
 40
0.0
  0
LTYPE
  5
16
330
5
100
AcDbSymbolTableRecord
100
AcDbLinetypeTableRecord
  2
CONTINUOUS
 70
     0
  3
Solid line
 72
    65
 73
     0
 40
0.0
  0
ENDTAB
  0
TABLE
0
TABLE
2
LAYER
5
2
330
0
100
AcDbSymbolTable
70
2
0
LAYER
5
10
330
2
100
AcDbSymbolTableRecord
100
AcDbLayerTableRecord
2
Layer_1
70
0
62
7
6
CONTINUOUS
0
LAYER
5
10
330
2
100
AcDbSymbolTableRecord
100
AcDbLayerTableRecord
2
0
70
0
62
7
6
CONTINUOUS
0
ENDTAB
0
ENDSEC
  0
ENDTAB
  0
TABLE
  2
STYLE
  5
3
330
0
100
AcDbSymbolTable
 70
     1
  0
STYLE
  5
11
330
3
100
AcDbSymbolTableRecord
100
AcDbTextStyleTableRecord
  2
STANDARD
 70
     0
 40
0.0
 41
1.0
 50
0.0
 71
     0
 42
2.5
  3
txt
  4

  0
ENDTAB
  0
TABLE
  2
VIEW
  5
6
330
0
100
AcDbSymbolTable
 70
     0
  0
ENDTAB
  0
TABLE
  2
UCS
  5
7
330
0
100
AcDbSymbolTable
 70
     0
  0
ENDTAB
  0
TABLE
  2
APPID
  5
9
330
0
100
AcDbSymbolTable
 70
     2
  0
APPID
  5
12
330
9
100
AcDbSymbolTableRecord
100
AcDbRegAppTableRecord
  2
ACAD
 70
     0
  0
ENDTAB
  0
TABLE
  2
DIMSTYLE
  5
A
330
0
100
AcDbSymbolTable
 70
     1
  0
DIMSTYLE
105
27
330
A
100
AcDbSymbolTableRecord
100
AcDbDimStyleTableRecord
  2
ISO-25
 70
     0
  3

  4

  5

  6

  7

 40
1.0
 41
2.5
 42
0.625
 43
3.75
 44
1.25
 45
0.0
 46
0.0
 47
0.0
 48
0.0
140
2.5
141
2.5
142
0.0
143
0.03937007874016
144
1.0
145
0.0
146
1.0
147
0.625
 71
     0
 72
     0
 73
     0
 74
     0
 75
     0
 76
     0
 77
     1
 78
     8
170
     0
171
     3
172
     1
173
     0
174
     0
175
     0
176
     0
177
     0
178
     0
270
     2
271
     2
272
     2
273
     2
274
     3
340
11
275
     0
280
     0
281
     0
282
     0
283
     0
284
     8
285
     0
286
     0
287
     3
288
     0
  0
ENDTAB
  0
TABLE
  2
BLOCK_RECORD
  5
1
330
0
100
AcDbSymbolTable
 70
     1
  0
BLOCK_RECORD
  5
1F
330
1
100
AcDbSymbolTableRecord
100
AcDbBlockTableRecord
  2
*MODEL_SPACE
  0
BLOCK_RECORD
  5
1B
330
1
100
AcDbSymbolTableRecord
100
AcDbBlockTableRecord
  2
*PAPER_SPACE
  0
ENDTAB
  0
ENDSEC
  0
SECTION
  2
BLOCKS
  0
BLOCK
  5
20
330
1F
100
AcDbEntity
  8
0
100
AcDbBlockBegin
  2
*MODEL_SPACE
 70
     0
 10
0.0
 20
0.0
 30
0.0
  3
*MODEL_SPACE
  1

  0
ENDBLK
  5
21
330
1F
100
AcDbEntity
  8
0
100
AcDbBlockEnd
  0
BLOCK
  5
1C
330
1B
100
AcDbEntity
 67
     1
  8
0
100
AcDbBlockBegin
  2
*PAPER_SPACE
  1

  0
ENDBLK
  5
1D
330
1B
100
AcDbEntity
 67
     1
  8
0
100
AcDbBlockEnd
  0
ENDSEC
  0
SECTION
  2
ENTITIES
0
DIMENSION
5
83
100
AcDbEntity
62
256
370
-1
6
ByLayer
1
total_width
3
Standard
70
0
71
5
72
1
41
1.0
100
AcDbAlignedDimension
13
-17.764930
23
0.000000
33
0.0
14
231.930044
24
0.000000
34
0.0
50
0.000000
100
AcDbRotatedDimension
0
DIMENSION
5
83
100
AcDbEntity
62
256
370
-1
6
ByLayer
1
total_minx
3
Standard
70
0
71
5
72
1
41
1.0
100
AcDbAlignedDimension
13
-17.764930
23
0.000000
33
0.0
14
0.000000
24
0.000000
34
0.0
50
0.000000
100
AcDbRotatedDimension
0
DIMENSION
5
83
100
AcDbEntity
62
256
370
-1
6
ByLayer
1
total_maxx
3
Standard
70
0
71
5
72
1
41
1.0
100
AcDbAlignedDimension
13
0.000000
23
0.000000
33
0.0
14
231.930044
24
0.000000
34
0.0
50
0.000000
100
AcDbRotatedDimension
0
DIMENSION
5
83
100
AcDbEntity
62
256
370
-1
6
ByLayer
1
total_height
3
Standard
70
0
71
5
72
1
41
1.0
100
AcDbAlignedDimension
13
0.000000
23
-0.367777
33
0.0
14
0.000000
24
298.411111
34
0.0
50
90.000000
100
AcDbRotatedDimension
0
DIMENSION
5
83
100
AcDbEntity
62
256
370
-1
6
ByLayer
1
total_miny
3
Standard
70
0
71
5
72
1
41
1.0
100
AcDbAlignedDimension
13
-0.367777
23
0.000000
33
0.0
14
0.000000
24
0.000000
34
0.0
50
0.000000
100
AcDbRotatedDimension
0
DIMENSION
5
83
100
AcDbEntity
62
256
370
-1
6
ByLayer
1
total_maxy
3
Standard
70
0
71
5
72
1
41
1.0
100
AcDbAlignedDimension
13
0.000000
23
0.000000
33
0.0
14
298.411111
24
0.000000
34
0.0
50
0.000000
100
AcDbRotatedDimension
0
DIMENSION
8
Layer_1
5
83
100
AcDbEntity
62
256
370
-1
6
ByLayer
1
Layer_1_width
3
Standard
70
0
71
5
72
1
41
1.0
100
AcDbAlignedDimension
13
-0.846667
23
0.000000
33
0.0
14
2.257778
24
0.000000
34
0.0
50
0.000000
100
AcDbRotatedDimension
0
DIMENSION
8
Layer_1
5
83
100
AcDbEntity
62
256
370
-1
6
ByLayer
1
Layer_1_minx
3
Standard
70
0
71
5
72
1
41
1.0
100
AcDbAlignedDimension
13
-0.846667
23
0.000000
33
0.0
14
0.000000
24
0.000000
34
0.0
50
0.000000
100
AcDbRotatedDimension
0
DIMENSION
8
Layer_1
5
83
100
AcDbEntity
62
256
370
-1
6
ByLayer
1
Layer_1_maxx
3
Standard
70
0
71
5
72
1
41
1.0
100
AcDbAlignedDimension
13
0.000000
23
0.000000
33
0.0
14
2.257778
24
0.000000
34
0.0
50
0.000000
100
AcDbRotatedDimension
0
DIMENSION
8
Layer_1
5
83
100
AcDbEntity
62
256
370
-1
6
ByLayer
1
Layer_1_height
3
Standard
70
0
71
5
72
1
41
1.0
100
AcDbAlignedDimension
13
0.000000
23
-0.367777
33
0.0
14
0.000000
24
298.411111
34
0.0
50
90.000000
100
AcDbRotatedDimension
0
DIMENSION
8
Layer_1
5
83
100
AcDbEntity
62
256
370
-1
6
ByLayer
1
Layer_1_miny
3
Standard
70
0
71
5
72
1
41
1.0
100
AcDbAlignedDimension
13
-0.367777
23
0.000000
33
0.0
14
0.000000
24
0.000000
34
0.0
50
0.000000
100
AcDbRotatedDimension
0
DIMENSION
8
Layer_1
5
83
100
AcDbEntity
62
256
370
-1
6
ByLayer
1
Layer_1_maxy
3
Standard
70
0
71
5
72
1
41
1.0
100
AcDbAlignedDimension
13
0.000000
23
0.000000
33
0.0
14
298.411111
24
0.000000
34
0.0
50
0.000000
100
AcDbRotatedDimension
0
DIMENSION
8
0
5
83
100
AcDbEntity
62
256
370
-1
6
ByLayer
1
0_width
3
Standard
70
0
71
5
72
1
41
1.0
100
AcDbAlignedDimension
13
-17.764930
23
0.000000
33
0.0
14
231.930044
24
0.000000
34
0.0
50
0.000000
100
AcDbRotatedDimension
0
DIMENSION
8
0
5
83
100
AcDbEntity
62
256
370
-1
6
ByLayer
1
0_minx
3
Standard
70
0
71
5
72
1
41
1.0
100
AcDbAlignedDimension
13
-17.764930
23
0.000000
33
0.0
14
0.000000
24
0.000000
34
0.0
50
0.000000
100
AcDbRotatedDimension
0
DIMENSION
8
0
5
83
100
AcDbEntity
62
256
370
-1
6
ByLayer
1
0_maxx
3
Standard
70
0
71
5
72
1
41
1.0
100
AcDbAlignedDimension
13
0.000000
23
0.000000
33
0.0
14
231.930044
24
0.000000
34
0.0
50
0.000000
100
AcDbRotatedDimension
0
DIMENSION
8
0
5
83
100
AcDbEntity
62
256
370
-1
6
ByLayer
1
0_height
3
Standard
70
0
71
5
72
1
41
1.0
100
AcDbAlignedDimension
13
0.000000
23
58.777015
33
0.0
14
0.000000
24
259.005537
34
0.0
50
90.000000
100
AcDbRotatedDimension
0
DIMENSION
8
0
5
83
100
AcDbEntity
62
256
370
-1
6
ByLayer
1
0_miny
3
Standard
70
0
71
5
72
1
41
1.0
100
AcDbAlignedDimension
13
58.777015
23
0.000000
33
0.0
14
0.000000
24
0.000000
34
0.0
50
0.000000
100
AcDbRotatedDimension
0
DIMENSION
8
0
5
83
100
AcDbEntity
62
256
370
-1
6
ByLayer
1
0_maxy
3
Standard
70
0
71
5
72
1
41
1.0
100
AcDbAlignedDimension
13
0.000000
23
0.000000
33
0.0
14
259.005537
24
0.000000
34
0.0
50
0.000000
100
AcDbRotatedDimension
62
0
0
LWPOLYLINE
100
AcDbPolyline
8
Layer_1
90
2
70
0
10
0.846667
20
297.846667
30
0.0
10
-0.846667
20
296.153333
30
0.0
62
0
0
LWPOLYLINE
100
AcDbPolyline
8
Layer_1
90
2
70
0
10
0.000000
20
298.411111
30
0.0
10
0.000000
20
295.588889
30
0.0
62
0
0
LWPOLYLINE
100
AcDbPolyline
8
Layer_1
90
2
70
0
10
2.257778
20
295.871111
30
0.0
10
1.128889
20
294.742222
30
0.0
62
0
0
LWPOLYLINE
100
AcDbPolyline
8
Layer_1
90
2
70
0
10
1.693333
20
296.435556
30
0.0
10
0.564444
20
295.306667
30
0.0
62
0
0
LWPOLYLINE
100
AcDbPolyline
8
Layer_1
90
2
70
0
10
1.128889
20
297.000000
30
0.0
10
0.000000
20
295.871111
30
0.0
62
0
0
LWPOLYLINE
100
AcDbPolyline
8
Layer_1
90
2
70
0
10
-0.171072
20
0.367777
30
0.0
10
-0.007294
20
0.367646
30
0.0
62
0
0
LWPOLYLINE
100
AcDbPolyline
8
Layer_1
90
2
70
0
10
-0.171072
20
0.367777
30
0.0
10
-0.320487
20
0.232304
30
0.0
62
0
0
LWPOLYLINE
100
AcDbPolyline
8
Layer_1
90
2
70
0
10
0.348873
20
-0.209343
30
0.0
10
0.458740
20
-0.339542
30
0.0
62
0
0
LWPOLYLINE
100
AcDbPolyline
8
Layer_1
90
2
70
0
10
-0.320487
20
0.232304
30
0.0
10
-0.366805
20
-0.243704
30
0.0
62
0
0
LWPOLYLINE
100
AcDbPolyline
8
Layer_1
90
2
70
0
10
-0.458740
20
-0.367777
30
0.0
10
-0.366805
20
-0.243704
30
0.0
62
0
0
LWPOLYLINE
100
AcDbPolyline
8
Layer_1
90
2
70
0
10
0.156484
20
0.367777
30
0.0
10
-0.007294
20
0.367646
30
0.0
62
0
0
LWPOLYLINE
100
AcDbPolyline
8
Layer_1
90
2
70
0
10
0.305898
20
0.232304
30
0.0
10
0.156484
20
0.367777
30
0.0
62
0
0
LWPOLYLINE
100
AcDbPolyline
8
Layer_1
90
2
70
0
10
0.305898
20
0.232304
30
0.0
10
0.348873
20
-0.209343
30
0.0
62
0
0
LWPOLYLINE
100
AcDbPolyline
8
0
90
448
70
0
10
203.676129
20
58.777015
30
0.0
10
202.186143
20
59.104153
30
0.0
10
200.479623
20
59.658374
30
0.0
10
193.685462
20
62.453140
30
0.0
10
187.462473
20
65.079204
30
0.0
10
181.154807
20
67.744147
30
0.0
10
178.995807
20
68.660866
30
0.0
10
175.947807
20
69.946979
30
0.0
10
172.857473
20
71.258491
30
0.0
10
169.682473
20
72.607552
30
0.0
10
166.911570
20
73.780084
30
0.0
10
166.173599
20
74.135726
30
0.0
10
166.861524
20
74.639273
30
0.0
10
169.001196
20
76.247242
30
0.0
10
171.313492
20
78.303299
30
0.0
10
172.287159
20
79.130873
30
0.0
10
177.257253
20
77.142714
30
0.0
10
178.215263
20
76.735580
30
0.0
10
179.035215
20
76.521277
30
0.0
10
181.841750
20
76.422979
30
0.0
10
184.805083
20
76.507680
30
0.0
10
185.896140
20
76.893929
30
0.0
10
186.675806
20
77.395952
30
0.0
10
188.055140
20
78.734142
30
0.0
10
189.380604
20
80.130061
30
0.0
10
189.913872
20
80.951393
30
0.0
10
192.019674
20
84.788994
30
0.0
10
192.585623
20
85.792776
30
0.0
10
192.879682
20
86.641876
30
0.0
10
193.008129
20
89.613716
30
0.0
10
192.923575
20
92.518003
30
0.0
10
192.738236
20
93.182871
30
0.0
10
192.400811
20
93.828382
30
0.0
10
191.004944
20
95.468492
30
0.0
10
188.812840
20
97.541801
30
0.0
10
185.663510
20
100.011248
30
0.0
10
184.754543
20
100.744266
30
0.0
10
184.332304
20
101.255764
30
0.0
10
184.080810
20
101.689545
30
0.0
10
184.105166
20
106.306469
30
0.0
10
184.064189
20
111.261176
30
0.0
10
183.720449
20
114.337280
30
0.0
10
183.491426
20
115.803834
30
0.0
10
183.888513
20
118.189613
30
0.0
10
184.897020
20
125.740060
30
0.0
10
185.058824
20
128.147398
30
0.0
10
185.083532
20
132.132393
30
0.0
10
185.044383
20
136.086280
30
0.0
10
184.888756
20
138.524726
30
0.0
10
184.109318
20
144.952347
30
0.0
10
182.921340
20
151.055393
30
0.0
10
180.999102
20
157.786393
30
0.0
10
179.141835
20
162.849629
30
0.0
10
176.542342
20
168.454393
30
0.0
10
174.255282
20
172.722332
30
0.0
10
171.710559
20
176.751726
30
0.0
10
169.772141
20
179.588381
30
0.0
10
169.180346
20
180.392393
30
0.0
10
165.737594
20
184.665439
30
0.0
10
161.752030
20
188.919752
30
0.0
10
157.436319
20
192.943267
30
0.0
10
153.003129
20
196.523922
30
0.0
10
148.615270
20
199.539443
30
0.0
10
144.197795
20
202.210163
30
0.0
10
139.269261
20
204.705109
30
0.0
10
134.969129
20
206.530701
30
0.0
10
134.346548
20
206.835141
30
0.0
10
133.614462
20
207.479870
30
0.0
10
131.480710
20
209.351468
30
0.0
10
129.091919
20
211.102248
30
0.0
10
126.551399
20
212.662809
30
0.0
10
123.962462
20
213.963751
30
0.0
10
120.663349
20
215.190393
30
0.0
10
120.381397
20
215.710706
30
0.0
10
120.051899
20
217.184672
30
0.0
10
119.344767
20
222.471726
30
0.0
10
118.943838
20
225.042586
30
0.0
10
118.325999
20
226.493393
30
0.0
10
115.223905
20
229.574859
30
0.0
10
114.469813
20
229.925828
30
0.0
10
113.215250
20
230.068250
30
0.0
10
108.047245
20
230.091726
30
0.0
10
102.287881
20
230.030149
30
0.0
10
101.363916
20
229.878426
30
0.0
10
100.803978
20
229.579634
30
0.0
10
99.065949
20
227.957271
30
0.0
10
97.973581
20
226.772960
30
0.0
10
97.337785
20
225.766264
30
0.0
10
96.985417
20
224.547185
30
0.0
10
96.743331
20
222.725726
30
0.0
10
96.191823
20
218.440776
30
0.0
10
95.668191
20
216.082529
30
0.0
10
95.415814
20
215.488621
30
0.0
10
95.091129
20
215.309909
30
0.0
10
91.619795
20
213.894364
30
0.0
10
88.824978
20
212.415944
30
0.0
10
86.345680
20
210.757853
30
0.0
10
85.313941
20
209.983393
30
0.0
10
83.834518
20
208.559272
30
0.0
10
82.199740
20
207.915740
30
0.0
10
78.128297
20
206.473520
30
0.0
10
74.295488
20
204.862234
30
0.0
10
70.574922
20
203.024161
30
0.0
10
66.840207
20
200.901584
30
0.0
10
62.929007
20
198.413831
30
0.0
10
58.821529
20
195.384808
30
0.0
10
54.446057
20
191.640193
30
0.0
10
49.997755
20
187.292726
30
0.0
10
47.732388
20
184.725734
30
0.0
10
45.137795
20
181.498351
30
0.0
10
43.936443
20
179.968425
30
0.0
10
41.719658
20
176.836393
30
0.0
10
39.752691
20
173.758908
30
0.0
10
37.938578
20
170.600343
30
0.0
10
36.276881
20
167.359671
30
0.0
10
34.767162
20
164.035863
30
0.0
10
33.408984
20
160.627892
30
0.0
10
32.201908
20
157.134729
30
0.0
10
31.145497
20
153.555348
30
0.0
10
30.239312
20
149.888720
30
0.0
10
29.102771
20
143.970813
30
0.0
10
28.401202
20
137.424060
30
0.0
10
28.290265
20
131.799152
30
0.0
10
28.447489
20
126.036393
30
0.0
10
29.103125
20
120.243906
30
0.0
10
29.278834
20
119.150419
30
0.0
10
29.103035
20
118.084906
30
0.0
10
28.705119
20
115.037303
30
0.0
10
28.608836
20
110.373060
30
0.0
10
28.713077
20
104.338308
30
0.0
10
28.855075
20
102.917897
30
0.0
10
28.503420
20
102.221641
30
0.0
10
28.151765
20
101.525393
30
0.0
10
26.107864
20
99.916726
30
0.0
10
24.115603
20
98.273952
30
0.0
10
22.276441
20
96.530060
30
0.0
10
20.799377
20
95.005237
30
0.0
10
20.055976
20
93.829887
30
0.0
10
19.803512
20
92.359041
30
0.0
10
19.799258
20
89.947726
30
0.0
10
19.852092
20
87.789655
30
0.0
10
19.975570
20
87.014348
30
0.0
10
22.259569
20
82.911833
30
0.0
10
23.527599
20
80.723606
30
0.0
10
24.788086
20
79.428265
30
0.0
10
26.392108
20
77.940490
30
0.0
10
27.654129
20
77.258631
30
0.0
10
28.489540
20
77.091009
30
0.0
10
30.626953
20
77.032334
30
0.0
10
33.605385
20
77.084065
30
0.0
10
34.858524
20
77.482775
30
0.0
10
37.941129
20
78.768415
30
0.0
10
39.864419
20
79.568143
30
0.0
10
41.110377
20
80.077709
30
0.0
10
41.571717
20
79.710214
30
0.0
10
42.738757
20
78.747935
30
0.0
10
45.027936
20
76.977852
30
0.0
10
47.122664
20
75.603559
30
0.0
10
47.529107
20
75.375086
30
0.0
10
46.756786
20
75.022136
30
0.0
10
42.343795
20
72.993598
30
0.0
10
37.898795
20
70.957280
30
0.0
10
35.866795
20
70.029393
30
0.0
10
33.834795
20
69.098381
30
0.0
10
32.014462
20
68.272094
30
0.0
10
29.559129
20
67.156382
30
0.0
10
27.654129
20
66.287897
30
0.0
10
26.384129
20
65.711385
30
0.0
10
24.267462
20
64.757843
30
0.0
10
16.258220
20
61.194049
30
0.0
10
12.396862
20
59.610990
30
0.0
10
10.869398
20
59.220330
30
0.0
10
9.154462
20
59.111965
30
0.0
10
7.427099
20
59.246439
30
0.0
10
5.937129
20
59.740412
30
0.0
10
4.988076
20
60.261330
30
0.0
10
4.046705
20
60.953886
30
0.0
10
2.425488
20
62.655917
30
0.0
10
0.899462
20
65.116550
30
0.0
10
-1.060298
20
68.547726
30
0.0
10
-3.416887
20
72.569393
30
0.0
10
-4.156817
20
73.881726
30
0.0
10
-5.286858
20
76.009585
30
0.0
10
-5.925710
20
77.828802
30
0.0
10
-6.118386
20
78.783248
30
0.0
10
-6.191498
20
80.155747
30
0.0
10
-6.194206
20
81.515242
30
0.0
10
-6.051412
20
82.355886
30
0.0
10
-5.327271
20
84.136415
30
0.0
10
-4.035352
20
85.856556
30
0.0
10
-2.262703
20
87.560872
30
0.0
10
-0.360319
20
89.167023
30
0.0
10
3.066116
20
91.870650
30
0.0
10
5.682872
20
93.990060
30
0.0
10
9.183277
20
96.849526
30
0.0
10
10.546743
20
98.115536
30
0.0
10
12.341128
20
100.283947
30
0.0
10
13.906218
20
102.964726
30
0.0
10
14.649432
20
104.595375
30
0.0
10
15.109504
20
106.112837
30
0.0
10
15.327886
20
107.707244
30
0.0
10
15.346031
20
109.568726
30
0.0
10
14.866707
20
115.759748
30
0.0
10
14.611133
20
117.823726
30
0.0
10
13.983334
20
121.197535
30
0.0
10
13.494185
20
122.617541
30
0.0
10
12.836793
20
124.039716
30
0.0
10
11.421178
20
126.319601
30
0.0
10
9.650990
20
128.404264
30
0.0
10
7.632370
20
130.185406
30
0.0
10
5.471462
20
131.554729
30
0.0
10
3.843352
20
132.251877
30
0.0
10
1.508322
20
132.936616
30
0.0
10
-2.259344
20
134.075823
30
0.0
10
-6.339538
20
135.395607
30
0.0
10
-10.669901
20
136.843394
30
0.0
10
-13.167112
20
137.851296
30
0.0
10
-14.836895
20
138.948026
30
0.0
10
-16.162629
20
140.376571
30
0.0
10
-17.123264
20
142.107835
30
0.0
10
-17.697746
20
144.112726
30
0.0
10
-17.764930
20
146.066270
30
0.0
10
-17.307619
20
149.531393
30
0.0
10
-16.576808
20
154.103393
30
0.0
10
-15.418102
20
160.694283
30
0.0
10
-14.975948
20
162.394514
30
0.0
10
-14.515567
20
163.533092
30
0.0
10
-13.783876
20
164.729250
30
0.0
10
-12.872237
20
165.815209
30
0.0
10
-11.838922
20
166.730993
30
0.0
10
-10.742205
20
167.416625
30
0.0
10
-9.542878
20
167.901576
30
0.0
10
-8.109483
20
168.157394
30
0.0
10
-5.981616
20
168.226025
30
0.0
10
-2.698871
20
168.149415
30
0.0
10
6.953129
20
168.000597
30
0.0
10
12.652806
20
168.071339
30
0.0
10
13.872039
20
168.284435
30
0.0
10
15.118980
20
168.713312
30
0.0
10
16.523292
20
169.308610
30
0.0
10
17.740674
20
170.041080
30
0.0
10
18.936312
20
171.028459
30
0.0
10
20.275392
20
172.388481
30
0.0
10
21.580504
20
174.011731
30
0.0
10
23.215901
20
176.339731
30
0.0
10
26.362948
20
181.450726
30
0.0
10
27.433765
20
183.508914
30
0.0
10
28.136583
20
185.167579
30
0.0
10
28.582991
20
186.740501
30
0.0
10
28.884575
20
188.541458
30
0.0
10
28.999194
20
190.068308
30
0.0
10
28.885986
20
191.991726
30
0.0
10
28.609619
20
194.068118
30
0.0
10
28.152249
20
195.854906
30
0.0
10
27.457901
20
197.519854
30
0.0
10
26.470599
20
199.230726
30
0.0
10
25.110076
20
201.389726
30
0.0
10
19.343867
20
210.483700
30
0.0
10
18.172100
20
212.353856
30
0.0
10
17.403378
20
213.845725
30
0.0
10
16.947945
20
215.165446
30
0.0
10
16.716050
20
216.519160
30
0.0
10
16.710577
20
218.276964
30
0.0
10
17.069029
20
219.939894
30
0.0
10
17.539325
20
221.105961
30
0.0
10
18.226171
20
222.189372
30
0.0
10
19.755746
20
223.943329
30
0.0
10
22.476909
20
226.358440
30
0.0
10
24.677630
20
228.269745
30
0.0
10
28.642684
20
231.762684
30
0.0
10
31.504486
20
233.981251
30
0.0
10
32.628791
20
234.531267
30
0.0
10
33.802314
20
234.932606
30
0.0
10
35.002172
20
235.179022
30
0.0
10
36.205482
20
235.264270
30
0.0
10
37.780846
20
235.101609
30
0.0
10
39.294358
20
234.556305
30
0.0
10
40.897476
20
233.553104
30
0.0
10
42.741664
20
232.016756
30
0.0
10
44.799148
20
230.176760
30
0.0
10
47.720148
20
227.548035
30
0.0
10
52.509129
20
223.296393
30
0.0
10
55.297815
20
221.028002
30
0.0
10
56.708828
20
220.204534
30
0.0
10
58.271410
20
219.507640
30
0.0
10
59.853799
20
218.954146
30
0.0
10
61.393815
20
218.604811
30
0.0
10
64.092570
20
218.445171
30
0.0
10
66.981815
20
218.605375
30
0.0
10
71.142365
20
219.440268
30
0.0
10
75.107518
20
220.642424
30
0.0
10
78.624156
20
222.121147
30
0.0
10
81.439156
20
223.785739
30
0.0
10
83.272506
20
225.470147
30
0.0
10
85.009761
20
227.340238
30
0.0
10
85.885313
20
228.695552
30
0.0
10
86.640908
20
230.285710
30
0.0
10
87.283678
20
232.128215
30
0.0
10
87.820754
20
234.240571
30
0.0
10
88.742105
20
238.600904
30
0.0
10
89.250960
20
241.056238
30
0.0
10
89.759172
20
243.511571
30
0.0
10
90.308345
20
246.178571
30
0.0
10
90.856892
20
248.845571
30
0.0
10
92.175406
20
254.856904
30
0.0
10
93.033287
20
256.355918
30
0.0
10
94.362875
20
257.542484
30
0.0
10
96.128569
20
258.393169
30
0.0
10
98.294766
20
258.884540
30
0.0
10
107.100099
20
258.993345
30
0.0
10
115.157151
20
259.005537
30
0.0
10
115.831564
20
258.810290
30
0.0
10
117.509176
20
258.158123
30
0.0
10
118.978870
20
257.259406
30
0.0
10
120.154872
20
256.178325
30
0.0
10
120.951408
20
254.979064
30
0.0
10
121.521320
20
252.874078
30
0.0
10
122.740279
20
246.178537
30
0.0
10
123.580502
20
241.394870
30
0.0
10
124.604266
20
235.425870
30
0.0
10
125.039477
20
232.990337
30
0.0
10
125.431558
20
231.437954
30
0.0
10
125.957365
20
230.238508
30
0.0
10
126.793755
20
228.861788
30
0.0
10
127.930965
20
227.207359
30
0.0
10
129.036989
20
225.878067
30
0.0
10
130.204397
20
224.774868
30
0.0
10
131.525758
20
223.798716
30
0.0
10
132.693113
20
223.110450
30
0.0
10
134.174045
20
222.429507
30
0.0
10
139.202485
20
220.623998
30
0.0
10
144.603588
20
218.918289
30
0.0
10
146.174733
20
218.573321
30
0.0
10
147.647985
20
218.393982
30
0.0
10
149.729158
20
218.368188
30
0.0
10
151.871774
20
218.632509
30
0.0
10
153.971537
20
219.167300
30
0.0
10
155.924151
20
219.952916
30
0.0
10
157.992759
20
221.188450
30
0.0
10
160.115151
20
222.973232
30
0.0
10
161.427485
20
224.206343
30
0.0
10
164.517818
20
227.002855
30
0.0
10
170.061800
20
232.091770
30
0.0
10
171.876639
20
233.664626
30
0.0
10
173.373883
20
234.589124
30
0.0
10
174.783114
20
235.171935
30
0.0
10
176.200218
20
235.474957
30
0.0
10
177.947493
20
235.516438
30
0.0
10
179.642142
20
235.143844
30
0.0
10
181.353593
20
234.333051
30
0.0
10
183.151275
20
233.059939
30
0.0
10
189.543230
20
227.621173
30
0.0
10
192.167897
20
225.357519
30
0.0
10
193.906939
20
223.759187
30
0.0
10
194.909488
20
222.518166
30
0.0
10
195.537714
20
221.395943
30
0.0
10
196.013474
20
220.186151
30
0.0
10
196.315334
20
218.956042
30
0.0
10
196.421860
20
217.772870
30
0.0
10
196.282068
20
216.225688
30
0.0
10
195.755580
20
214.558671
30
0.0
10
194.688711
20
212.403253
30
0.0
10
192.927780
20
209.390870
30
0.0
10
191.418371
20
206.893204
30
0.0
10
189.976413
20
204.607204
30
0.0
10
187.108280
20
200.136096
30
0.0
10
185.673537
20
197.566185
30
0.0
10
184.682013
20
195.232103
30
0.0
10
184.153386
20
193.088245
30
0.0
10
184.060434
20
190.946939
30
0.0
10
184.375936
20
188.620517
30
0.0
10
184.730572
20
187.228235
30
0.0
10
185.417547
20
185.331762
30
0.0
10
187.601546
20
180.198150
30
0.0
10
189.773156
20
175.820537
30
0.0
10
191.110461
20
173.667372
30
0.0
10
192.458229
20
171.892334
30
0.0
10
193.823095
20
170.487647
30
0.0
10
195.211692
20
169.445535
30
0.0
10
197.604467
20
168.247526
30
0.0
10
200.077824
20
167.300844
30
0.0
10
201.457166
20
167.081238
30
0.0
10
203.595494
20
166.956930
30
0.0
10
209.467385
20
167.014958
30
0.0
10
220.270824
20
167.304188
30
0.0
10
222.291235
20
167.187363
30
0.0
10
223.875676
20
166.815560
30
0.0
10
225.275363
20
166.196094
30
0.0
10
226.474357
20
165.356529
30
0.0
10
227.479476
20
164.290973
30
0.0
10
228.297534
20
162.993537
30
0.0
10
228.880430
20
161.607889
30
0.0
10
229.410562
20
159.713087
30
0.0
10
230.599367
20
153.172204
30
0.0
10
231.144225
20
149.954870
30
0.0
10
231.819625
20
145.813437
30
0.0
10
231.930044
20
143.955509
30
0.0
10
231.699811
20
142.423805
30
0.0
10
231.176991
20
140.902370
30
0.0
10
230.125635
20
139.002601
30
0.0
10
229.578235
20
138.413217
30
0.0
10
228.977718
20
138.013416
30
0.0
10
228.187157
20
137.462134
30
0.0
10
227.484097
20
136.985444
30
0.0
10
226.257868
20
136.418027
30
0.0
10
222.091157
20
134.951404
30
0.0
10
218.916157
20
133.905322
30
0.0
10
214.894490
20
132.639860
30
0.0
10
210.050947
20
131.064953
30
0.0
10
208.346192
20
130.368336
30
0.0
10
207.206870
20
129.764969
30
0.0
10
205.489467
20
128.376278
30
0.0
10
203.771601
20
126.561441
30
0.0
10
202.323605
20
124.639536
30
0.0
10
201.415811
20
122.929643
30
0.0
10
199.919610
20
117.518641
30
0.0
10
198.331207
20
110.465160
30
0.0
10
198.122161
20
109.166873
30
0.0
10
198.118157
20
107.960204
30
0.0
10
198.473475
20
105.380520
30
0.0
10
199.395467
20
102.678257
30
0.0
10
200.147970
20
101.165599
30
0.0
10
201.067584
20
99.716497
30
0.0
10
202.108345
20
98.395899
30
0.0
10
203.224291
20
97.268751
30
0.0
10
205.242490
20
95.639874
30
0.0
10
215.437655
20
87.540466
30
0.0
10
217.919094
20
85.408864
30
0.0
10
218.679053
20
84.437563
30
0.0
10
219.251316
20
83.345853
30
0.0
10
219.634434
20
82.153342
30
0.0
10
219.826955
20
80.879640
30
0.0
10
219.827430
20
79.544355
30
0.0
10
219.634408
20
78.167095
30
0.0
10
219.246439
20
76.767469
30
0.0
10
218.662072
20
75.365086
30
0.0
10
217.916131
20
73.924204
30
0.0
10
216.800337
20
71.976870
30
0.0
10
211.990424
20
63.602533
30
0.0
10
211.139234
20
62.257394
30
0.0
10
210.420337
20
61.378111
30
0.0
10
209.567417
20
60.599351
30
0.0
10
208.590877
20
59.921643
30
0.0
10
207.533654
20
59.370919
30
0.0
10
206.438689
20
58.973112
30
0.0
10
205.021016
20
58.778441
30
0.0
10
203.676157
20
58.777159
30
0.0
10
203.676129
20
58.777015
30
0.0
62
0
0
LWPOLYLINE
100
AcDbPolyline
8
0
90
525
70
0
10
140.811140
20
72.782770
30
0.0
10
136.990405
20
73.295107
30
0.0
10
133.360998
20
74.156763
30
0.0
10
129.852604
20
75.388359
30
0.0
10
126.394904
20
77.010515
30
0.0
10
122.463732
20
79.391494
30
0.0
10
118.704471
20
82.262824
30
0.0
10
115.259092
20
85.504052
30
0.0
10
112.269566
20
88.994726
30
0.0
10
110.658698
20
91.301940
30
0.0
10
109.167905
20
93.809290
30
0.0
10
107.834179
20
96.449358
30
0.0
10
106.694512
20
99.154726
30
0.0
10
105.380540
20
103.053686
30
0.0
10
104.234640
20
107.706060
30
0.0
10
103.157471
20
112.072066
30
0.0
10
102.037540
20
115.199060
30
0.0
10
100.829102
20
117.769092
30
0.0
10
99.453423
20
120.187796
30
0.0
10
97.911935
20
122.453544
30
0.0
10
96.206070
20
124.564706
30
0.0
10
94.337259
20
126.519655
30
0.0
10
92.306935
20
128.316761
30
0.0
10
90.116529
20
129.954396
30
0.0
10
87.767473
20
131.430930
30
0.0
10
85.641697
20
132.547560
30
0.0
10
83.470030
20
133.482105
30
0.0
10
81.260086
20
134.232967
30
0.0
10
79.019484
20
134.798551
30
0.0
10
76.755838
20
135.177258
30
0.0
10
74.476766
20
135.367493
30
0.0
10
72.189883
20
135.367659
30
0.0
10
69.902807
20
135.176160
30
0.0
10
66.454302
20
134.543665
30
0.0
10
63.118702
20
133.544453
30
0.0
10
59.991993
20
132.213139
30
0.0
10
57.170162
20
130.584339
30
0.0
10
55.380922
20
129.262168
30
0.0
10
53.601338
20
127.606723
30
0.0
10
52.232235
20
126.138547
30
0.0
10
51.042683
20
124.643098
30
0.0
10
49.990232
20
123.062130
30
0.0
10
49.032431
20
121.337393
30
0.0
10
47.780903
20
118.563888
30
0.0
10
46.857138
20
115.807092
30
0.0
10
46.261371
20
113.073108
30
0.0
10
45.993836
20
110.368042
30
0.0
10
46.054769
20
107.697999
30
0.0
10
46.444403
20
105.069085
30
0.0
10
47.162974
20
102.487403
30
0.0
10
48.210716
20
99.959060
30
0.0
10
49.641364
20
97.404381
30
0.0
10
51.303979
20
95.154902
30
0.0
10
53.187738
20
93.223382
30
0.0
10
55.281819
20
91.622585
30
0.0
10
57.647386
20
90.380388
30
0.0
10
60.293140
20
89.466735
30
0.0
10
63.558804
20
88.962080
30
0.0
10
66.727807
20
88.946433
30
0.0
10
69.160192
20
89.390690
30
0.0
10
71.299248
20
90.206507
30
0.0
10
73.301473
20
91.472563
30
0.0
10
75.323370
20
93.267531
30
0.0
10
76.936180
20
95.117242
30
0.0
10
77.959738
20
96.954594
30
0.0
10
78.499549
20
99.044631
30
0.0
10
78.661116
20
101.652393
30
0.0
10
78.633595
20
103.295335
30
0.0
10
78.470667
20
104.192393
30
0.0
10
78.063458
20
105.358614
30
0.0
10
77.531743
20
106.293222
30
0.0
10
76.862697
20
107.013897
30
0.0
10
76.043494
20
107.538318
30
0.0
10
74.774292
20
107.992602
30
0.0
10
73.376324
20
108.063836
30
0.0
10
71.441764
20
107.742863
30
0.0
10
70.717939
20
107.404095
30
0.0
10
70.121941
20
106.934509
30
0.0
10
69.548662
20
106.131579
30
0.0
10
69.173217
20
104.726657
30
0.0
10
68.880539
20
103.620305
30
0.0
10
68.479210
20
102.813188
30
0.0
10
67.908782
20
102.218081
30
0.0
10
67.108807
20
101.747762
30
0.0
10
65.702092
20
101.481038
30
0.0
10
64.169298
20
101.642343
30
0.0
10
62.966040
20
102.179477
30
0.0
10
61.838429
20
103.021143
30
0.0
10
60.793569
20
104.160864
30
0.0
10
59.838565
20
105.592162
30
0.0
10
59.420575
20
106.555923
30
0.0
10
59.112422
20
107.742312
30
0.0
10
58.942364
20
109.006517
30
0.0
10
58.938660
20
110.203726
30
0.0
10
59.289241
20
112.346559
30
0.0
10
60.077502
20
114.394726
30
0.0
10
61.484125
20
116.650479
30
0.0
10
63.360484
20
118.581268
30
0.0
10
65.652941
20
120.142167
30
0.0
10
68.307856
20
121.288253
30
0.0
10
70.277755
20
121.785210
30
0.0
10
72.323807
20
122.016194
30
0.0
10
74.411620
20
121.979588
30
0.0
10
76.506807
20
121.673774
30
0.0
10
78.276994
20
121.173084
30
0.0
10
80.077806
20
120.415568
30
0.0
10
81.892286
20
119.409500
30
0.0
10
83.703473
20
118.163155
30
0.0
10
85.652173
20
116.386620
30
0.0
10
87.404473
20
114.437060
30
0.0
10
88.831721
20
112.210932
30
0.0
10
89.966165
20
109.771339
30
0.0
10
90.813564
20
107.103440
30
0.0
10
91.379675
20
104.192393
30
0.0
10
91.536878
20
100.974752
30
0.0
10
91.381651
20
97.842588
30
0.0
10
90.794214
20
95.089814
30
0.0
10
89.883677
20
92.339060
30
0.0
10
87.721206
20
88.102848
30
0.0
10
85.654733
20
85.243943
30
0.0
10
83.165553
20
82.684085
30
0.0
10
80.272580
20
80.440153
30
0.0
10
76.994726
20
78.529029
30
0.0
10
74.764194
20
77.536384
30
0.0
10
72.452889
20
76.754065
30
0.0
10
70.073958
20
76.183412
30
0.0
10
67.640552
20
75.825767
30
0.0
10
65.165819
20
75.682474
30
0.0
10
62.662909
20
75.754874
30
0.0
10
60.144970
20
76.044309
30
0.0
10
57.625152
20
76.552122
30
0.0
10
54.163180
20
77.620652
30
0.0
10
50.877910
20
79.095579
30
0.0
10
47.706869
20
81.009697
30
0.0
10
44.587586
20
83.395796
30
0.0
10
43.192371
20
84.450278
30
0.0
10
42.149254
20
84.879190
30
0.0
10
41.382760
20
84.976307
30
0.0
10
40.603327
20
84.923719
30
0.0
10
38.586983
20
84.301543
30
0.0
10
33.750253
20
82.285647
30
0.0
10
31.535421
20
81.472593
30
0.0
10
30.865121
20
81.418014
30
0.0
10
30.192861
20
81.536270
30
0.0
10
29.297423
20
81.836528
30
0.0
10
28.589149
20
82.275514
30
0.0
10
27.964617
20
82.938760
30
0.0
10
27.320404
20
83.911797
30
0.0
10
24.569764
20
88.740726
30
0.0
10
24.269649
20
89.450759
30
0.0
10
24.225589
20
90.349393
30
0.0
10
24.266141
20
91.227027
30
0.0
10
24.501495
20
91.844716
30
0.0
10
24.893435
20
92.513493
30
0.0
10
25.495363
20
93.199076
30
0.0
10
28.152990
20
95.429393
30
0.0
10
31.479085
20
98.216365
30
0.0
10
32.299195
20
99.094021
30
0.0
10
32.806140
20
99.864953
30
0.0
10
33.233235
20
100.862637
30
0.0
10
33.447738
20
101.922400
30
0.0
10
33.463461
20
103.183466
30
0.0
10
33.294216
20
104.785060
30
0.0
10
33.004796
20
107.353696
30
0.0
10
32.906679
20
109.733232
30
0.0
10
32.999670
20
112.104598
30
0.0
10
33.283576
20
114.648726
30
0.0
10
34.033720
20
118.563171
30
0.0
10
35.155149
20
122.356091
30
0.0
10
36.626942
20
125.967745
30
0.0
10
38.428176
20
129.338393
30
0.0
10
39.683747
20
131.270487
30
0.0
10
41.309922
20
133.444726
30
0.0
10
42.896185
20
135.293220
30
0.0
10
44.855227
20
137.295384
30
0.0
10
46.951119
20
139.222595
30
0.0
10
48.947928
20
140.846227
30
0.0
10
51.274938
20
142.437499
30
0.0
10
53.562261
20
143.767608
30
0.0
10
54.281928
20
144.155322
30
0.0
10
57.372261
20
145.574454
30
0.0
10
61.297521
20
146.969027
30
0.0
10
65.415595
20
147.975025
30
0.0
10
69.034316
20
148.495018
30
0.0
10
72.674988
20
148.687240
30
0.0
10
76.368962
20
148.551934
30
0.0
10
80.147595
20
148.089342
30
0.0
10
82.967584
20
147.522414
30
0.0
10
86.285928
20
146.524372
30
0.0
10
89.950812
20
145.400843
30
0.0
10
92.847595
20
144.712505
30
0.0
10
96.111618
20
144.236637
30
0.0
10
99.498406
20
144.078272
30
0.0
10
102.840621
20
144.237377
30
0.0
10
105.970928
20
144.713916
30
0.0
10
109.547460
20
145.688146
30
0.0
10
112.956180
20
147.043659
30
0.0
10
116.195377
20
148.779658
30
0.0
10
119.263341
20
150.895345
30
0.0
10
122.056863
20
153.456670
30
0.0
10
124.653060
20
156.431571
30
0.0
10
126.909002
20
159.956379
30
0.0
10
128.700042
20
163.675084
30
0.0
10
129.166089
20
164.864922
30
0.0
10
129.899875
20
167.420552
30
0.0
10
130.497193
20
170.570905
30
0.0
10
130.654294
20
174.023086
30
0.0
10
130.498887
20
177.540622
30
0.0
10
130.109418
20
179.882685
30
0.0
10
129.539372
20
182.131790
30
0.0
10
128.790741
20
184.284004
30
0.0
10
127.865518
20
186.335393
30
0.0
10
126.765695
20
188.282023
30
0.0
10
125.493263
20
190.119962
30
0.0
10
124.050216
20
191.845275
30
0.0
10
122.438544
20
193.454030
30
0.0
10
120.711496
20
194.905994
30
0.0
10
118.934759
20
196.149154
30
0.0
10
117.103221
20
197.185449
30
0.0
10
115.211768
20
198.016819
30
0.0
10
113.255286
20
198.645205
30
0.0
10
111.228664
20
199.072545
30
0.0
10
109.126788
20
199.300779
30
0.0
10
106.944544
20
199.331847
30
0.0
10
104.194239
20
199.080999
30
0.0
10
101.621857
20
198.498296
30
0.0
10
99.222529
20
197.582269
30
0.0
10
96.991384
20
196.331452
30
0.0
10
95.650738
20
195.340205
30
0.0
10
94.403374
20
194.204858
30
0.0
10
93.261142
20
192.942885
30
0.0
10
92.235891
20
191.571761
30
0.0
10
91.339470
20
190.108960
30
0.0
10
90.583729
20
188.571957
30
0.0
10
89.980517
20
186.978224
30
0.0
10
89.541683
20
185.345238
30
0.0
10
89.314357
20
183.023217
30
0.0
10
89.371791
20
180.713316
30
0.0
10
89.841488
20
178.618062
30
0.0
10
90.613207
20
176.622612
30
0.0
10
91.640641
20
174.824603
30
0.0
10
92.877482
20
173.321674
30
0.0
10
94.638005
20
171.893296
30
0.0
10
96.479419
20
171.005201
30
0.0
10
98.324085
20
170.682883
30
0.0
10
99.223377
20
170.741858
30
0.0
10
100.094367
20
170.951837
30
0.0
10
101.276141
20
171.479214
30
0.0
10
102.185430
20
172.078022
30
0.0
10
102.750692
20
172.905743
30
0.0
10
103.182355
20
174.018828
30
0.0
10
103.407075
20
175.609359
30
0.0
10
103.317102
20
176.930269
30
0.0
10
102.842284
20
177.884513
30
0.0
10
101.984237
20
179.079905
30
0.0
10
101.358411
20
180.086628
30
0.0
10
101.017268
20
181.073979
30
0.0
10
101.094992
20
182.016552
30
0.0
10
101.497335
20
183.093953
30
0.0
10
102.140366
20
184.136019
30
0.0
10
102.940158
20
184.972586
30
0.0
10
104.185794
20
185.702990
30
0.0
10
105.635893
20
186.230750
30
0.0
10
106.675944
20
186.386956
30
0.0
10
107.817254
20
186.400919
30
0.0
10
108.957047
20
186.277568
30
0.0
10
109.992544
20
186.021832
30
0.0
10
111.698573
20
185.245677
30
0.0
10
113.286060
20
184.141509
30
0.0
10
114.654955
20
182.792354
30
0.0
10
115.705207
20
181.281238
30
0.0
10
116.454978
20
179.797628
30
0.0
10
116.963836
20
178.444905
30
0.0
10
117.587427
20
175.655914
30
0.0
10
117.649564
20
172.917634
30
0.0
10
117.149650
20
170.222639
30
0.0
10
116.087088
20
167.563502
30
0.0
10
115.140340
20
165.912748
30
0.0
10
114.043525
20
164.380800
30
0.0
10
112.808383
20
162.977509
30
0.0
10
111.446657
20
161.712725
30
0.0
10
109.970086
20
160.596299
30
0.0
10
108.390412
20
159.638082
30
0.0
10
106.719377
20
158.847923
30
0.0
10
104.968720
20
158.235674
30
0.0
10
101.906797
20
157.597114
30
0.0
10
98.647210
20
157.475266
30
0.0
10
95.507352
20
157.814835
30
0.0
10
92.470422
20
158.636662
30
0.0
10
89.516219
20
159.947937
30
0.0
10
86.624544
20
161.755851
30
0.0
10
84.601397
20
163.381667
30
0.0
10
82.789117
20
165.199924
30
0.0
10
81.191207
20
167.204353
30
0.0
10
79.811172
20
169.388683
30
0.0
10
78.652515
20
171.746644
30
0.0
10
77.718740
20
174.271966
30
0.0
10
77.013352
20
176.958379
30
0.0
10
76.539855
20
179.799614
30
0.0
10
76.386952
20
182.922247
30
0.0
10
76.535198
20
186.017677
30
0.0
10
76.932301
20
188.406850
30
0.0
10
77.530085
20
190.722373
30
0.0
10
78.341882
20
193.007761
30
0.0
10
79.381023
20
195.306525
30
0.0
10
80.676163
20
197.671809
30
0.0
10
82.118465
20
199.869411
30
0.0
10
83.708700
20
201.900087
30
0.0
10
85.447639
20
203.764596
30
0.0
10
87.336052
20
205.463693
30
0.0
10
89.374710
20
206.998137
30
0.0
10
91.564383
20
208.368683
30
0.0
10
93.905843
20
209.576090
30
0.0
10
97.577650
20
211.066531
30
0.0
10
98.462109
20
211.558307
30
0.0
10
99.205785
20
212.301628
30
0.0
10
99.794679
20
213.278421
30
0.0
10
100.214788
20
214.470614
30
0.0
10
101.056612
20
220.081507
30
0.0
10
101.400232
20
222.562509
30
0.0
10
101.700111
20
223.537633
30
0.0
10
102.125461
20
224.340891
30
0.0
10
102.672731
20
224.967064
30
0.0
10
103.338370
20
225.410933
30
0.0
10
103.811843
20
225.640574
30
0.0
10
107.579510
20
225.714338
30
0.0
10
111.790373
20
225.699296
30
0.0
10
112.557951
20
225.451879
30
0.0
10
113.240181
20
225.046358
30
0.0
10
113.804782
20
224.507194
30
0.0
10
114.219468
20
223.858846
30
0.0
10
114.671130
20
222.409840
30
0.0
10
115.071452
20
219.481559
30
0.0
10
115.514774
20
215.985626
30
0.0
10
115.952409
20
213.766372
30
0.0
10
116.499603
20
212.404754
30
0.0
10
117.271600
20
211.481733
30
0.0
10
117.777802
20
211.106403
30
0.0
10
118.469938
20
210.835842
30
0.0
10
121.273237
20
209.795846
30
0.0
10
123.748312
20
208.635079
30
0.0
10
124.477834
20
208.247619
30
0.0
10
126.671843
20
206.908907
30
0.0
10
128.970696
20
205.241534
30
0.0
10
131.198689
20
203.332558
30
0.0
10
133.322745
20
201.212601
30
0.0
10
135.309782
20
198.912289
30
0.0
10
137.399813
20
196.023511
30
0.0
10
139.648850
20
192.106901
30
0.0
10
141.417475
20
187.853233
30
0.0
10
142.721768
20
183.215980
30
0.0
10
143.577812
20
178.148619
30
0.0
10
143.692778
20
173.921251
30
0.0
10
143.579223
20
169.724286
30
0.0
10
142.933651
20
165.726835
30
0.0
10
142.009376
20
162.011224
30
0.0
10
140.772663
20
158.464067
30
0.0
10
139.189773
20
154.971974
30
0.0
10
137.148860
20
151.350639
30
0.0
10
134.781490
20
147.981520
30
0.0
10
131.975604
20
144.721007
30
0.0
10
128.619140
20
141.425494
30
0.0
10
125.100599
20
137.913989
30
0.0
10
123.730848
20
136.258442
30
0.0
10
122.450902
20
134.478374
30
0.0
10
120.415101
20
131.029074
30
0.0
10
118.811505
20
127.339943
30
0.0
10
117.634297
20
123.395005
30
0.0
10
116.877660
20
119.178286
30
0.0
10
116.764307
20
115.620171
30
0.0
10
116.878506
20
112.066286
30
0.0
10
117.261786
20
109.609393
30
0.0
10
117.775520
20
107.298998
30
0.0
10
118.429376
20
105.112722
30
0.0
10
119.233019
20
103.028189
30
0.0
10
120.196117
20
101.023022
30
0.0
10
121.328336
20
99.074845
30
0.0
10
122.639345
20
97.161281
30
0.0
10
124.138809
20
95.259952
30
0.0
10
125.393944
20
93.892082
30
0.0
10
126.828786
20
92.590024
30
0.0
10
130.651292
20
89.838974
30
0.0
10
134.757626
20
87.787112
30
0.0
10
136.852472
20
87.065421
30
0.0
10
138.924079
20
86.555551
30
0.0
10
141.064745
20
86.239403
30
0.0
10
143.366769
20
86.098875
30
0.0
10
146.499913
20
86.177146
30
0.0
10
149.387907
20
86.580698
30
0.0
10
152.097796
20
87.323262
30
0.0
10
154.696626
20
88.418564
30
0.0
10
156.723968
20
89.574870
30
0.0
10
158.628046
20
90.954535
30
0.0
10
160.385869
20
92.529640
30
0.0
10
161.974445
20
94.272264
30
0.0
10
163.370785
20
96.154488
30
0.0
10
164.551898
20
98.148391
30
0.0
10
165.494792
20
100.226054
30
0.0
10
166.176477
20
102.359557
30
0.0
10
166.591164
20
104.634582
30
0.0
10
166.720410
20
107.013209
30
0.0
10
166.564471
20
109.449359
30
0.0
10
166.123603
20
111.896952
30
0.0
10
165.430691
20
114.183157
30
0.0
10
164.378852
20
116.228271
30
0.0
10
163.201299
20
117.989333
30
0.0
10
161.929720
20
119.503081
30
0.0
10
160.557315
20
120.773554
30
0.0
10
159.077286
20
121.804793
30
0.0
10
157.482835
20
122.600839
30
0.0
10
155.767162
20
123.165732
30
0.0
10
153.923470
20
123.503513
30
0.0
10
151.944959
20
123.618223
30
0.0
10
150.023927
20
123.513810
30
0.0
10
148.431292
20
123.096685
30
0.0
10
147.249725
20
122.565106
30
0.0
10
146.023643
20
121.825837
30
0.0
10
144.895700
20
120.975225
30
0.0
10
144.008551
20
120.109619
30
0.0
10
143.346482
20
119.143313
30
0.0
10
142.878567
20
118.032814
30
0.0
10
142.614496
20
116.809030
30
0.0
10
142.563960
20
115.502872
30
0.0
10
142.638257
20
114.718268
30
0.0
10
142.822651
20
114.161921
30
0.0
10
143.463572
20
113.241848
30
0.0
10
144.389780
20
112.565430
30
0.0
10
145.455487
20
112.288406
30
0.0
10
147.161292
20
112.515934
30
0.0
10
148.826226
20
112.788782
30
0.0
10
149.917666
20
112.750519
30
0.0
10
151.633187
20
112.267027
30
0.0
10
152.296161
20
111.860212
30
0.0
10
152.904156
20
111.307164
30
0.0
10
153.627172
20
110.339387
30
0.0
10
154.090800
20
109.259643
30
0.0
10
154.284943
20
108.102273
30
0.0
10
154.199505
20
106.901619
30
0.0
10
153.751144
20
105.244433
30
0.0
10
153.068447
20
103.786730
30
0.0
10
152.149267
20
102.524865
30
0.0
10
150.991460
20
101.455190
30
0.0
10
149.459665
20
100.500283
30
0.0
10
147.716728
20
99.790909
30
0.0
10
145.832123
20
99.349116
30
0.0
10
143.875328
20
99.196952
30
0.0
10
141.427938
20
99.460339
30
0.0
10
139.083641
20
100.258732
30
0.0
10
136.815872
20
101.604482
30
0.0
10
134.598063
20
103.509940
30
0.0
10
132.831081
20
105.623292
30
0.0
10
131.439383
20
108.046500
30
0.0
10
130.461390
20
110.697299
30
0.0
10
129.935520
20
113.493427
30
0.0
10
129.833450
20
115.292430
30
0.0
10
129.891685
20
117.074540
30
0.0
10
130.109479
20
118.836932
30
0.0
10
130.486088
20
120.576782
30
0.0
10
131.020765
20
122.291267
30
0.0
10
131.712767
20
123.977561
30
0.0
10
132.561349
20
125.632842
30
0.0
10
133.565765
20
127.254284
30
0.0
10
134.918713
20
129.031236
30
0.0
10
136.465747
20
130.646666
30
0.0
10
138.195149
20
132.093590
30
0.0
10
140.095203
20
133.365021
30
0.0
10
142.154193
20
134.453974
30
0.0
10
144.360402
20
135.353464
30
0.0
10
146.702114
20
136.056504
30
0.0
10
149.167613
20
136.556111
30
0.0
10
150.588405
20
136.712222
30
0.0
10
152.791626
20
136.742572
30
0.0
10
156.337545
20
136.563222
30
0.0
10
159.647136
20
135.757653
30
0.0
10
162.567128
20
134.647786
30
0.0
10
165.218102
20
133.260241
30
0.0
10
165.708186
20
132.978952
30
0.0
10
166.532044
20
132.456957
30
0.0
10
169.227946
20
130.443911
30
0.0
10
171.625551
20
128.215051
30
0.0
10
173.717014
20
125.778527
30
0.0
10
175.494493
20
123.142489
30
0.0
10
176.987899
20
120.219767
30
0.0
10
178.197859
20
117.008331
30
0.0
10
179.091028
20
113.612937
30
0.0
10
179.634058
20
110.138341
30
0.0
10
179.722722
20
106.958474
30
0.0
10
179.585891
20
103.853619
30
0.0
10
179.401451
20
101.722800
30
0.0
10
179.458501
20
100.372422
30
0.0
10
179.826761
20
99.339916
30
0.0
10
180.471673
20
98.333060
30
0.0
10
181.428044
20
97.307682
30
0.0
10
182.730682
20
96.219607
30
0.0
10
186.803539
20
93.016828
30
0.0
10
187.649095
20
92.208401
30
0.0
10
188.072827
20
91.607365
30
0.0
10
188.475786
20
90.607637
30
0.0
10
188.605626
20
89.621796
30
0.0
10
188.435386
20
88.535401
30
0.0
10
187.885163
20
87.382642
30
0.0
10
185.811626
20
83.664311
30
0.0
10
184.805333
20
82.071575
30
0.0
10
184.257941
20
81.581811
30
0.0
10
183.594087
20
81.199799
30
0.0
10
182.855186
20
80.910321
30
0.0
10
181.916959
20
80.866619
30
0.0
10
180.752557
20
80.976002
30
0.0
10
178.191626
20
82.050014
30
0.0
10
173.365626
20
83.925558
30
0.0
10
172.010959
20
84.083690
30
0.0
10
171.241956
20
84.041310
30
0.0
10
170.633768
20
83.854722
30
0.0
10
169.173220
20
82.692227
30
0.0
10
166.922042
20
80.701409
30
0.0
10
164.714229
20
79.016927
30
0.0
10
162.450263
20
77.569069
30
0.0
10
160.030626
20
76.288125
30
0.0
10
157.196562
20
75.064187
30
0.0
10
154.304399
20
74.115841
30
0.0
10
151.227349
20
73.407906
30
0.0
10
147.838626
20
72.905201
30
0.0
10
144.287780
20
72.742237
30
0.0
10
140.811292
20
72.782663
30
0.0
10
140.811140
20
72.782770
30
0.0
62
0
0
LWPOLYLINE
100
AcDbPolyline
8
0
90
6
70
0
10
166.761473
20
77.049013
30
0.0
10
166.888473
20
77.183726
30
0.0
10
167.015473
20
77.203143
30
0.0
10
166.888473
20
77.068439
30
0.0
10
166.761473
20
77.049022
30
0.0
10
166.761473
20
77.049013
30
0.0
  0
ENDSEC
  0
SECTION
  2
OBJECTS
  0
DICTIONARY
  5
C
330
0
100
AcDbDictionary
  3
ACAD_GROUP
350
D
  3
ACAD_MLINESTYLE
350
17
  0
DICTIONARY
  5
D
330
C
100
AcDbDictionary
  0
DICTIONARY
  5
1A
330
C
100
AcDbDictionary
  0
DICTIONARY
  5
17
330
C
100
AcDbDictionary
  3
STANDARD
350
18
  0
DICTIONARY
  5
19
330
C
100
AcDbDictionary
  0
ENDSEC
  0
EOF
