999
Inkscape export via OpenSCAD DXF Export
  0
SECTION
  2
HEADER
  9
$ACADVER
  1
AC1014
  9
$HANDSEED
  5
FFFF
  9
$MEASUREMENT
 70
     1
  0
ENDSEC
  0
SECTION
  2
TABLES
  0
TABLE
  2
VPORT
  5
8
330
0
100
AcDbSymbolTable
 70
     4
  0
VPORT
  5
2E
330
8
100
AcDbSymbolTableRecord
100
AcDbViewportTableRecord
  2
*ACTIVE
 70
     0
 10
0.0
 20
0.0
 11
1.0
 21
1.0
 12
210.0
 22
148.5
 13
0.0
 23
0.0
 14
10.0
 24
10.0
 15
10.0
 25
10.0
 16
0.0
 26
0.0
 36
1.0
 17
0.0
 27
0.0
 37
0.0
 40
341.0
 41
1.24
 42
50.0
 43
0.0
 44
0.0
 50
0.0
 51
0.0
 71
     0
 72
   100
 73
     1
 74
     3
 75
     0
 76
     0
 77
     0
 78
     0
  0
ENDTAB
  0
TABLE
  2
LTYPE
  5
5
330
0
100
AcDbSymbolTable
 70
     1
  0
LTYPE
  5
14
330
5
100
AcDbSymbolTableRecord
100
AcDbLinetypeTableRecord
  2
BYBLOCK
 70
     0
  3

 72
    65
 73
     0
 40
0.0
  0
LTYPE
  5
15
330
5
100
AcDbSymbolTableRecord
100
AcDbLinetypeTableRecord
  2
BYLAYER
 70
     0
  3

 72
    65
 73
     0
 40
0.0
  0
LTYPE
  5
16
330
5
100
AcDbSymbolTableRecord
100
AcDbLinetypeTableRecord
  2
CONTINUOUS
 70
     0
  3
Solid line
 72
    65
 73
     0
 40
0.0
  0
ENDTAB
  0
TABLE
0
TABLE
2
LAYER
5
2
330
0
100
AcDbSymbolTable
70
2
0
LAYER
5
10
330
2
100
AcDbSymbolTableRecord
100
AcDbLayerTableRecord
2
Layer_1
70
0
62
7
6
CONTINUOUS
0
LAYER
5
10
330
2
100
AcDbSymbolTableRecord
100
AcDbLayerTableRecord
2
0
70
0
62
7
6
CONTINUOUS
0
ENDTAB
0
ENDSEC
  0
ENDTAB
  0
TABLE
  2
STYLE
  5
3
330
0
100
AcDbSymbolTable
 70
     1
  0
STYLE
  5
11
330
3
100
AcDbSymbolTableRecord
100
AcDbTextStyleTableRecord
  2
STANDARD
 70
     0
 40
0.0
 41
1.0
 50
0.0
 71
     0
 42
2.5
  3
txt
  4

  0
ENDTAB
  0
TABLE
  2
VIEW
  5
6
330
0
100
AcDbSymbolTable
 70
     0
  0
ENDTAB
  0
TABLE
  2
UCS
  5
7
330
0
100
AcDbSymbolTable
 70
     0
  0
ENDTAB
  0
TABLE
  2
APPID
  5
9
330
0
100
AcDbSymbolTable
 70
     2
  0
APPID
  5
12
330
9
100
AcDbSymbolTableRecord
100
AcDbRegAppTableRecord
  2
ACAD
 70
     0
  0
ENDTAB
  0
TABLE
  2
DIMSTYLE
  5
A
330
0
100
AcDbSymbolTable
 70
     1
  0
DIMSTYLE
105
27
330
A
100
AcDbSymbolTableRecord
100
AcDbDimStyleTableRecord
  2
ISO-25
 70
     0
  3

  4

  5

  6

  7

 40
1.0
 41
2.5
 42
0.625
 43
3.75
 44
1.25
 45
0.0
 46
0.0
 47
0.0
 48
0.0
140
2.5
141
2.5
142
0.0
143
0.03937007874016
144
1.0
145
0.0
146
1.0
147
0.625
 71
     0
 72
     0
 73
     0
 74
     0
 75
     0
 76
     0
 77
     1
 78
     8
170
     0
171
     3
172
     1
173
     0
174
     0
175
     0
176
     0
177
     0
178
     0
270
     2
271
     2
272
     2
273
     2
274
     3
340
11
275
     0
280
     0
281
     0
282
     0
283
     0
284
     8
285
     0
286
     0
287
     3
288
     0
  0
ENDTAB
  0
TABLE
  2
BLOCK_RECORD
  5
1
330
0
100
AcDbSymbolTable
 70
     1
  0
BLOCK_RECORD
  5
1F
330
1
100
AcDbSymbolTableRecord
100
AcDbBlockTableRecord
  2
*MODEL_SPACE
  0
BLOCK_RECORD
  5
1B
330
1
100
AcDbSymbolTableRecord
100
AcDbBlockTableRecord
  2
*PAPER_SPACE
  0
ENDTAB
  0
ENDSEC
  0
SECTION
  2
BLOCKS
  0
BLOCK
  5
20
330
1F
100
AcDbEntity
  8
0
100
AcDbBlockBegin
  2
*MODEL_SPACE
 70
     0
 10
0.0
 20
0.0
 30
0.0
  3
*MODEL_SPACE
  1

  0
ENDBLK
  5
21
330
1F
100
AcDbEntity
  8
0
100
AcDbBlockEnd
  0
BLOCK
  5
1C
330
1B
100
AcDbEntity
 67
     1
  8
0
100
AcDbBlockBegin
  2
*PAPER_SPACE
  1

  0
ENDBLK
  5
1D
330
1B
100
AcDbEntity
 67
     1
  8
0
100
AcDbBlockEnd
  0
ENDSEC
  0
SECTION
  2
ENTITIES
0
DIMENSION
5
83
100
AcDbEntity
62
256
370
-1
6
ByLayer
1
total_width
3
Standard
70
0
71
5
72
1
41
1.0
100
AcDbAlignedDimension
13
-17.785549
23
0.000000
33
0.0
14
231.909426
24
0.000000
34
0.0
50
0.000000
100
AcDbRotatedDimension
0
DIMENSION
5
83
100
AcDbEntity
62
256
370
-1
6
ByLayer
1
total_minx
3
Standard
70
0
71
5
72
1
41
1.0
100
AcDbAlignedDimension
13
-17.785549
23
0.000000
33
0.0
14
0.000000
24
0.000000
34
0.0
50
0.000000
100
AcDbRotatedDimension
0
DIMENSION
5
83
100
AcDbEntity
62
256
370
-1
6
ByLayer
1
total_maxx
3
Standard
70
0
71
5
72
1
41
1.0
100
AcDbAlignedDimension
13
0.000000
23
0.000000
33
0.0
14
231.909426
24
0.000000
34
0.0
50
0.000000
100
AcDbRotatedDimension
0
DIMENSION
5
83
100
AcDbEntity
62
256
370
-1
6
ByLayer
1
total_height
3
Standard
70
0
71
5
72
1
41
1.0
100
AcDbAlignedDimension
13
0.000000
23
-0.367777
33
0.0
14
0.000000
24
298.411111
34
0.0
50
90.000000
100
AcDbRotatedDimension
0
DIMENSION
5
83
100
AcDbEntity
62
256
370
-1
6
ByLayer
1
total_miny
3
Standard
70
0
71
5
72
1
41
1.0
100
AcDbAlignedDimension
13
-0.367777
23
0.000000
33
0.0
14
0.000000
24
0.000000
34
0.0
50
0.000000
100
AcDbRotatedDimension
0
DIMENSION
5
83
100
AcDbEntity
62
256
370
-1
6
ByLayer
1
total_maxy
3
Standard
70
0
71
5
72
1
41
1.0
100
AcDbAlignedDimension
13
0.000000
23
0.000000
33
0.0
14
298.411111
24
0.000000
34
0.0
50
0.000000
100
AcDbRotatedDimension
0
DIMENSION
8
Layer_1
5
83
100
AcDbEntity
62
256
370
-1
6
ByLayer
1
Layer_1_width
3
Standard
70
0
71
5
72
1
41
1.0
100
AcDbAlignedDimension
13
-0.846667
23
0.000000
33
0.0
14
2.257778
24
0.000000
34
0.0
50
0.000000
100
AcDbRotatedDimension
0
DIMENSION
8
Layer_1
5
83
100
AcDbEntity
62
256
370
-1
6
ByLayer
1
Layer_1_minx
3
Standard
70
0
71
5
72
1
41
1.0
100
AcDbAlignedDimension
13
-0.846667
23
0.000000
33
0.0
14
0.000000
24
0.000000
34
0.0
50
0.000000
100
AcDbRotatedDimension
0
DIMENSION
8
Layer_1
5
83
100
AcDbEntity
62
256
370
-1
6
ByLayer
1
Layer_1_maxx
3
Standard
70
0
71
5
72
1
41
1.0
100
AcDbAlignedDimension
13
0.000000
23
0.000000
33
0.0
14
2.257778
24
0.000000
34
0.0
50
0.000000
100
AcDbRotatedDimension
0
DIMENSION
8
Layer_1
5
83
100
AcDbEntity
62
256
370
-1
6
ByLayer
1
Layer_1_height
3
Standard
70
0
71
5
72
1
41
1.0
100
AcDbAlignedDimension
13
0.000000
23
-0.367777
33
0.0
14
0.000000
24
298.411111
34
0.0
50
90.000000
100
AcDbRotatedDimension
0
DIMENSION
8
Layer_1
5
83
100
AcDbEntity
62
256
370
-1
6
ByLayer
1
Layer_1_miny
3
Standard
70
0
71
5
72
1
41
1.0
100
AcDbAlignedDimension
13
-0.367777
23
0.000000
33
0.0
14
0.000000
24
0.000000
34
0.0
50
0.000000
100
AcDbRotatedDimension
0
DIMENSION
8
Layer_1
5
83
100
AcDbEntity
62
256
370
-1
6
ByLayer
1
Layer_1_maxy
3
Standard
70
0
71
5
72
1
41
1.0
100
AcDbAlignedDimension
13
0.000000
23
0.000000
33
0.0
14
298.411111
24
0.000000
34
0.0
50
0.000000
100
AcDbRotatedDimension
0
DIMENSION
8
0
5
83
100
AcDbEntity
62
256
370
-1
6
ByLayer
1
0_width
3
Standard
70
0
71
5
72
1
41
1.0
100
AcDbAlignedDimension
13
-17.785549
23
0.000000
33
0.0
14
231.909426
24
0.000000
34
0.0
50
0.000000
100
AcDbRotatedDimension
0
DIMENSION
8
0
5
83
100
AcDbEntity
62
256
370
-1
6
ByLayer
1
0_minx
3
Standard
70
0
71
5
72
1
41
1.0
100
AcDbAlignedDimension
13
-17.785549
23
0.000000
33
0.0
14
0.000000
24
0.000000
34
0.0
50
0.000000
100
AcDbRotatedDimension
0
DIMENSION
8
0
5
83
100
AcDbEntity
62
256
370
-1
6
ByLayer
1
0_maxx
3
Standard
70
0
71
5
72
1
41
1.0
100
AcDbAlignedDimension
13
0.000000
23
0.000000
33
0.0
14
231.909426
24
0.000000
34
0.0
50
0.000000
100
AcDbRotatedDimension
0
DIMENSION
8
0
5
83
100
AcDbEntity
62
256
370
-1
6
ByLayer
1
0_height
3
Standard
70
0
71
5
72
1
41
1.0
100
AcDbAlignedDimension
13
0.000000
23
58.777015
33
0.0
14
0.000000
24
259.005537
34
0.0
50
90.000000
100
AcDbRotatedDimension
0
DIMENSION
8
0
5
83
100
AcDbEntity
62
256
370
-1
6
ByLayer
1
0_miny
3
Standard
70
0
71
5
72
1
41
1.0
100
AcDbAlignedDimension
13
58.777015
23
0.000000
33
0.0
14
0.000000
24
0.000000
34
0.0
50
0.000000
100
AcDbRotatedDimension
0
DIMENSION
8
0
5
83
100
AcDbEntity
62
256
370
-1
6
ByLayer
1
0_maxy
3
Standard
70
0
71
5
72
1
41
1.0
100
AcDbAlignedDimension
13
0.000000
23
0.000000
33
0.0
14
259.005537
24
0.000000
34
0.0
50
0.000000
100
AcDbRotatedDimension
62
0
0
LWPOLYLINE
100
AcDbPolyline
8
Layer_1
90
2
70
0
10
0.846667
20
297.846667
30
0.0
10
-0.846667
20
296.153333
30
0.0
62
0
0
LWPOLYLINE
100
AcDbPolyline
8
Layer_1
90
2
70
0
10
0.000000
20
298.411111
30
0.0
10
0.000000
20
295.588889
30
0.0
62
0
0
LWPOLYLINE
100
AcDbPolyline
8
Layer_1
90
2
70
0
10
2.257778
20
295.871111
30
0.0
10
1.128889
20
294.742222
30
0.0
62
0
0
LWPOLYLINE
100
AcDbPolyline
8
Layer_1
90
2
70
0
10
1.693333
20
296.435556
30
0.0
10
0.564444
20
295.306667
30
0.0
62
0
0
LWPOLYLINE
100
AcDbPolyline
8
Layer_1
90
2
70
0
10
1.128889
20
297.000000
30
0.0
10
0.000000
20
295.871111
30
0.0
62
0
0
LWPOLYLINE
100
AcDbPolyline
8
Layer_1
90
2
70
0
10
-0.171072
20
0.367777
30
0.0
10
-0.007294
20
0.367646
30
0.0
62
0
0
LWPOLYLINE
100
AcDbPolyline
8
Layer_1
90
2
70
0
10
-0.171072
20
0.367777
30
0.0
10
-0.320487
20
0.232304
30
0.0
62
0
0
LWPOLYLINE
100
AcDbPolyline
8
Layer_1
90
2
70
0
10
0.348873
20
-0.209343
30
0.0
10
0.458740
20
-0.339542
30
0.0
62
0
0
LWPOLYLINE
100
AcDbPolyline
8
Layer_1
90
2
70
0
10
-0.320487
20
0.232304
30
0.0
10
-0.366805
20
-0.243704
30
0.0
62
0
0
LWPOLYLINE
100
AcDbPolyline
8
Layer_1
90
2
70
0
10
-0.458740
20
-0.367777
30
0.0
10
-0.366805
20
-0.243704
30
0.0
62
0
0
LWPOLYLINE
100
AcDbPolyline
8
Layer_1
90
2
70
0
10
0.156484
20
0.367777
30
0.0
10
-0.007294
20
0.367646
30
0.0
62
0
0
LWPOLYLINE
100
AcDbPolyline
8
Layer_1
90
2
70
0
10
0.305898
20
0.232304
30
0.0
10
0.156484
20
0.367777
30
0.0
62
0
0
LWPOLYLINE
100
AcDbPolyline
8
Layer_1
90
2
70
0
10
0.305898
20
0.232304
30
0.0
10
0.348873
20
-0.209343
30
0.0
62
0
0
LWPOLYLINE
100
AcDbPolyline
8
0
90
448
70
0
10
10.468367
20
58.777015
30
0.0
10
11.958352
20
59.104153
30
0.0
10
13.664872
20
59.658374
30
0.0
10
20.459034
20
62.453140
30
0.0
10
26.682022
20
65.079204
30
0.0
10
32.989689
20
67.744147
30
0.0
10
35.148689
20
68.660866
30
0.0
10
38.196689
20
69.946979
30
0.0
10
41.287023
20
71.258491
30
0.0
10
44.462023
20
72.607552
30
0.0
10
47.232926
20
73.780084
30
0.0
10
47.970897
20
74.135726
30
0.0
10
47.282972
20
74.639273
30
0.0
10
45.143300
20
76.247242
30
0.0
10
42.831004
20
78.303299
30
0.0
10
41.857337
20
79.130873
30
0.0
10
36.887243
20
77.142714
30
0.0
10
35.929233
20
76.735580
30
0.0
10
35.109281
20
76.521277
30
0.0
10
32.302746
20
76.422979
30
0.0
10
29.339413
20
76.507680
30
0.0
10
28.248356
20
76.893929
30
0.0
10
27.468690
20
77.395952
30
0.0
10
26.089356
20
78.734142
30
0.0
10
24.763891
20
80.130061
30
0.0
10
24.230623
20
80.951393
30
0.0
10
22.124822
20
84.788994
30
0.0
10
21.558872
20
85.792776
30
0.0
10
21.264813
20
86.641876
30
0.0
10
21.136367
20
89.613716
30
0.0
10
21.220921
20
92.518003
30
0.0
10
21.406260
20
93.182871
30
0.0
10
21.743685
20
93.828382
30
0.0
10
23.139552
20
95.468492
30
0.0
10
25.331656
20
97.541801
30
0.0
10
28.480986
20
100.011248
30
0.0
10
29.389953
20
100.744266
30
0.0
10
29.812192
20
101.255764
30
0.0
10
30.063686
20
101.689545
30
0.0
10
30.039330
20
106.306469
30
0.0
10
30.080307
20
111.261176
30
0.0
10
30.424047
20
114.337280
30
0.0
10
30.653070
20
115.803834
30
0.0
10
30.255983
20
118.189613
30
0.0
10
29.247476
20
125.740060
30
0.0
10
29.085672
20
128.147398
30
0.0
10
29.060964
20
132.132393
30
0.0
10
29.100113
20
136.086280
30
0.0
10
29.255740
20
138.524726
30
0.0
10
30.035178
20
144.952347
30
0.0
10
31.223156
20
151.055393
30
0.0
10
33.145394
20
157.786393
30
0.0
10
35.002661
20
162.849629
30
0.0
10
37.602154
20
168.454393
30
0.0
10
39.889214
20
172.722332
30
0.0
10
42.433937
20
176.751726
30
0.0
10
44.372355
20
179.588381
30
0.0
10
44.964150
20
180.392393
30
0.0
10
48.406902
20
184.665439
30
0.0
10
52.392466
20
188.919752
30
0.0
10
56.708177
20
192.943267
30
0.0
10
61.141367
20
196.523922
30
0.0
10
65.529226
20
199.539443
30
0.0
10
69.946701
20
202.210163
30
0.0
10
74.875235
20
204.705109
30
0.0
10
79.175367
20
206.530701
30
0.0
10
79.797948
20
206.835141
30
0.0
10
80.530034
20
207.479870
30
0.0
10
82.663786
20
209.351468
30
0.0
10
85.052577
20
211.102248
30
0.0
10
87.593096
20
212.662809
30
0.0
10
90.182034
20
213.963751
30
0.0
10
93.481147
20
215.190393
30
0.0
10
93.763099
20
215.710706
30
0.0
10
94.092597
20
217.184672
30
0.0
10
94.799729
20
222.471726
30
0.0
10
95.200658
20
225.042586
30
0.0
10
95.818497
20
226.493393
30
0.0
10
98.920591
20
229.574859
30
0.0
10
99.674683
20
229.925828
30
0.0
10
100.929246
20
230.068250
30
0.0
10
106.097251
20
230.091726
30
0.0
10
111.856615
20
230.030149
30
0.0
10
112.780580
20
229.878426
30
0.0
10
113.340518
20
229.579634
30
0.0
10
115.078547
20
227.957271
30
0.0
10
116.170915
20
226.772960
30
0.0
10
116.806711
20
225.766264
30
0.0
10
117.159079
20
224.547185
30
0.0
10
117.401165
20
222.725726
30
0.0
10
117.952673
20
218.440776
30
0.0
10
118.476305
20
216.082529
30
0.0
10
118.728682
20
215.488621
30
0.0
10
119.053367
20
215.309909
30
0.0
10
122.524701
20
213.894364
30
0.0
10
125.319518
20
212.415944
30
0.0
10
127.798816
20
210.757853
30
0.0
10
128.830555
20
209.983393
30
0.0
10
130.309978
20
208.559272
30
0.0
10
131.944756
20
207.915740
30
0.0
10
136.016199
20
206.473520
30
0.0
10
139.849008
20
204.862234
30
0.0
10
143.569573
20
203.024161
30
0.0
10
147.304289
20
200.901584
30
0.0
10
151.215489
20
198.413831
30
0.0
10
155.322967
20
195.384808
30
0.0
10
159.698439
20
191.640193
30
0.0
10
164.146741
20
187.292726
30
0.0
10
166.412108
20
184.725734
30
0.0
10
169.006701
20
181.498351
30
0.0
10
170.208053
20
179.968425
30
0.0
10
172.424838
20
176.836393
30
0.0
10
174.391805
20
173.758908
30
0.0
10
176.205918
20
170.600343
30
0.0
10
177.867615
20
167.359671
30
0.0
10
179.377334
20
164.035863
30
0.0
10
180.735512
20
160.627892
30
0.0
10
181.942588
20
157.134729
30
0.0
10
182.998999
20
153.555348
30
0.0
10
183.905184
20
149.888720
30
0.0
10
185.041725
20
143.970813
30
0.0
10
185.743294
20
137.424060
30
0.0
10
185.854231
20
131.799152
30
0.0
10
185.697007
20
126.036393
30
0.0
10
185.041371
20
120.243906
30
0.0
10
184.865662
20
119.150419
30
0.0
10
185.041461
20
118.084906
30
0.0
10
185.439377
20
115.037303
30
0.0
10
185.535660
20
110.373060
30
0.0
10
185.431419
20
104.338308
30
0.0
10
185.289421
20
102.917897
30
0.0
10
185.641076
20
102.221641
30
0.0
10
185.992730
20
101.525393
30
0.0
10
188.036632
20
99.916726
30
0.0
10
190.028893
20
98.273952
30
0.0
10
191.868055
20
96.530060
30
0.0
10
193.345119
20
95.005237
30
0.0
10
194.088520
20
93.829887
30
0.0
10
194.340984
20
92.359041
30
0.0
10
194.345238
20
89.947726
30
0.0
10
194.292404
20
87.789655
30
0.0
10
194.168926
20
87.014348
30
0.0
10
191.884927
20
82.911833
30
0.0
10
190.616896
20
80.723606
30
0.0
10
189.356410
20
79.428265
30
0.0
10
187.752387
20
77.940490
30
0.0
10
186.490367
20
77.258631
30
0.0
10
185.654956
20
77.091009
30
0.0
10
183.517543
20
77.032334
30
0.0
10
180.539111
20
77.084065
30
0.0
10
179.285972
20
77.482775
30
0.0
10
176.203367
20
78.768415
30
0.0
10
174.280076
20
79.568143
30
0.0
10
173.034119
20
80.077709
30
0.0
10
172.572779
20
79.710214
30
0.0
10
171.405739
20
78.747935
30
0.0
10
169.116560
20
76.977852
30
0.0
10
167.021832
20
75.603559
30
0.0
10
166.615389
20
75.375086
30
0.0
10
167.387710
20
75.022136
30
0.0
10
171.800701
20
72.993598
30
0.0
10
176.245701
20
70.957280
30
0.0
10
178.277701
20
70.029393
30
0.0
10
180.309701
20
69.098381
30
0.0
10
182.130034
20
68.272094
30
0.0
10
184.585367
20
67.156382
30
0.0
10
186.490367
20
66.287897
30
0.0
10
187.760367
20
65.711385
30
0.0
10
189.877034
20
64.757843
30
0.0
10
197.886276
20
61.194049
30
0.0
10
201.747634
20
59.610990
30
0.0
10
203.275098
20
59.220330
30
0.0
10
204.990034
20
59.111965
30
0.0
10
206.717397
20
59.246439
30
0.0
10
208.207367
20
59.740412
30
0.0
10
209.156420
20
60.261330
30
0.0
10
210.097791
20
60.953886
30
0.0
10
211.719008
20
62.655917
30
0.0
10
213.245034
20
65.116550
30
0.0
10
215.204794
20
68.547726
30
0.0
10
217.561383
20
72.569393
30
0.0
10
218.301313
20
73.881726
30
0.0
10
219.431354
20
76.009585
30
0.0
10
220.070206
20
77.828802
30
0.0
10
220.262882
20
78.783248
30
0.0
10
220.335994
20
80.155747
30
0.0
10
220.338702
20
81.515242
30
0.0
10
220.195908
20
82.355886
30
0.0
10
219.471767
20
84.136415
30
0.0
10
218.179848
20
85.856556
30
0.0
10
216.407198
20
87.560872
30
0.0
10
214.504815
20
89.167023
30
0.0
10
211.078380
20
91.870650
30
0.0
10
208.461624
20
93.990060
30
0.0
10
204.961219
20
96.849526
30
0.0
10
203.597753
20
98.115536
30
0.0
10
201.803368
20
100.283947
30
0.0
10
200.238278
20
102.964726
30
0.0
10
199.495064
20
104.595375
30
0.0
10
199.034992
20
106.112837
30
0.0
10
198.816610
20
107.707244
30
0.0
10
198.798465
20
109.568726
30
0.0
10
199.277788
20
115.759748
30
0.0
10
199.533363
20
117.823726
30
0.0
10
200.161162
20
121.197535
30
0.0
10
200.650311
20
122.617541
30
0.0
10
201.307703
20
124.039716
30
0.0
10
202.723318
20
126.319601
30
0.0
10
204.493506
20
128.404264
30
0.0
10
206.512126
20
130.185406
30
0.0
10
208.673034
20
131.554729
30
0.0
10
210.301144
20
132.251877
30
0.0
10
212.636173
20
132.936616
30
0.0
10
216.403840
20
134.075823
30
0.0
10
220.484034
20
135.395607
30
0.0
10
224.814397
20
136.843394
30
0.0
10
227.311608
20
137.851296
30
0.0
10
228.981391
20
138.948026
30
0.0
10
230.307125
20
140.376571
30
0.0
10
231.267760
20
142.107835
30
0.0
10
231.842242
20
144.112726
30
0.0
10
231.909426
20
146.066270
30
0.0
10
231.452115
20
149.531393
30
0.0
10
230.721304
20
154.103393
30
0.0
10
229.562598
20
160.694283
30
0.0
10
229.120444
20
162.394514
30
0.0
10
228.660063
20
163.533092
30
0.0
10
227.928372
20
164.729250
30
0.0
10
227.016733
20
165.815209
30
0.0
10
225.983418
20
166.730993
30
0.0
10
224.886701
20
167.416625
30
0.0
10
223.687374
20
167.901576
30
0.0
10
222.253979
20
168.157394
30
0.0
10
220.126112
20
168.226025
30
0.0
10
216.843367
20
168.149415
30
0.0
10
207.191367
20
168.000597
30
0.0
10
201.491690
20
168.071339
30
0.0
10
200.272457
20
168.284435
30
0.0
10
199.025516
20
168.713312
30
0.0
10
197.621203
20
169.308610
30
0.0
10
196.403822
20
170.041080
30
0.0
10
195.208184
20
171.028459
30
0.0
10
193.869104
20
172.388481
30
0.0
10
192.563992
20
174.011731
30
0.0
10
190.928595
20
176.339731
30
0.0
10
187.781548
20
181.450726
30
0.0
10
186.710731
20
183.508914
30
0.0
10
186.007913
20
185.167579
30
0.0
10
185.561505
20
186.740501
30
0.0
10
185.259921
20
188.541458
30
0.0
10
185.145301
20
190.068308
30
0.0
10
185.258510
20
191.991726
30
0.0
10
185.534877
20
194.068118
30
0.0
10
185.992247
20
195.854906
30
0.0
10
186.686595
20
197.519854
30
0.0
10
187.673897
20
199.230726
30
0.0
10
189.034420
20
201.389726
30
0.0
10
194.800629
20
210.483700
30
0.0
10
195.972396
20
212.353856
30
0.0
10
196.741118
20
213.845725
30
0.0
10
197.196551
20
215.165446
30
0.0
10
197.428445
20
216.519160
30
0.0
10
197.433919
20
218.276964
30
0.0
10
197.075467
20
219.939894
30
0.0
10
196.605171
20
221.105961
30
0.0
10
195.918325
20
222.189372
30
0.0
10
194.388750
20
223.943329
30
0.0
10
191.667587
20
226.358440
30
0.0
10
189.466866
20
228.269745
30
0.0
10
185.501812
20
231.762684
30
0.0
10
182.640010
20
233.981251
30
0.0
10
181.515705
20
234.531267
30
0.0
10
180.342182
20
234.932606
30
0.0
10
179.142324
20
235.179022
30
0.0
10
177.939014
20
235.264270
30
0.0
10
176.363649
20
235.101609
30
0.0
10
174.850138
20
234.556305
30
0.0
10
173.247019
20
233.553104
30
0.0
10
171.402832
20
232.016756
30
0.0
10
169.345348
20
230.176760
30
0.0
10
166.424348
20
227.548035
30
0.0
10
161.635367
20
223.296393
30
0.0
10
158.846681
20
221.028002
30
0.0
10
157.435667
20
220.204534
30
0.0
10
155.873086
20
219.507640
30
0.0
10
154.290697
20
218.954146
30
0.0
10
152.750681
20
218.604811
30
0.0
10
150.051926
20
218.445171
30
0.0
10
147.162681
20
218.605375
30
0.0
10
143.002131
20
219.440268
30
0.0
10
139.036977
20
220.642424
30
0.0
10
135.520340
20
222.121147
30
0.0
10
132.705340
20
223.785739
30
0.0
10
130.871990
20
225.470147
30
0.0
10
129.134735
20
227.340238
30
0.0
10
128.259183
20
228.695552
30
0.0
10
127.503588
20
230.285710
30
0.0
10
126.860818
20
232.128215
30
0.0
10
126.323742
20
234.240571
30
0.0
10
125.402391
20
238.600904
30
0.0
10
124.893536
20
241.056238
30
0.0
10
124.385324
20
243.511571
30
0.0
10
123.836151
20
246.178571
30
0.0
10
123.287604
20
248.845571
30
0.0
10
121.969090
20
254.856904
30
0.0
10
121.111209
20
256.355918
30
0.0
10
119.781621
20
257.542484
30
0.0
10
118.015927
20
258.393169
30
0.0
10
115.849730
20
258.884540
30
0.0
10
107.044397
20
258.993345
30
0.0
10
98.987345
20
259.005537
30
0.0
10
98.312932
20
258.810290
30
0.0
10
96.635320
20
258.158123
30
0.0
10
95.165626
20
257.259406
30
0.0
10
93.989624
20
256.178325
30
0.0
10
93.193088
20
254.979064
30
0.0
10
92.623176
20
252.874078
30
0.0
10
91.404217
20
246.178537
30
0.0
10
90.563994
20
241.394870
30
0.0
10
89.540230
20
235.425870
30
0.0
10
89.105019
20
232.990337
30
0.0
10
88.712938
20
231.437954
30
0.0
10
88.187131
20
230.238508
30
0.0
10
87.350741
20
228.861788
30
0.0
10
86.213531
20
227.207359
30
0.0
10
85.107507
20
225.878067
30
0.0
10
83.940099
20
224.774868
30
0.0
10
82.618738
20
223.798716
30
0.0
10
81.451383
20
223.110450
30
0.0
10
79.970450
20
222.429507
30
0.0
10
74.942011
20
220.623998
30
0.0
10
69.540908
20
218.918289
30
0.0
10
67.969763
20
218.573321
30
0.0
10
66.496511
20
218.393982
30
0.0
10
64.415338
20
218.368188
30
0.0
10
62.272722
20
218.632509
30
0.0
10
60.172959
20
219.167300
30
0.0
10
58.220345
20
219.952916
30
0.0
10
56.151737
20
221.188450
30
0.0
10
54.029345
20
222.973232
30
0.0
10
52.717011
20
224.206343
30
0.0
10
49.626678
20
227.002855
30
0.0
10
44.082696
20
232.091770
30
0.0
10
42.267857
20
233.664626
30
0.0
10
40.770612
20
234.589124
30
0.0
10
39.361382
20
235.171935
30
0.0
10
37.944278
20
235.474957
30
0.0
10
36.197002
20
235.516438
30
0.0
10
34.502354
20
235.143844
30
0.0
10
32.790903
20
234.333051
30
0.0
10
30.993221
20
233.059939
30
0.0
10
24.601266
20
227.621173
30
0.0
10
21.976599
20
225.357519
30
0.0
10
20.237556
20
223.759187
30
0.0
10
19.235008
20
222.518166
30
0.0
10
18.606781
20
221.395943
30
0.0
10
18.131021
20
220.186151
30
0.0
10
17.829161
20
218.956042
30
0.0
10
17.722635
20
217.772870
30
0.0
10
17.862427
20
216.225688
30
0.0
10
18.388916
20
214.558671
30
0.0
10
19.455784
20
212.403253
30
0.0
10
21.216716
20
209.390870
30
0.0
10
22.726125
20
206.893204
30
0.0
10
24.168083
20
204.607204
30
0.0
10
27.036216
20
200.136096
30
0.0
10
28.470959
20
197.566185
30
0.0
10
29.462483
20
195.232103
30
0.0
10
29.991110
20
193.088245
30
0.0
10
30.084062
20
190.946939
30
0.0
10
29.768560
20
188.620517
30
0.0
10
29.413924
20
187.228235
30
0.0
10
28.726948
20
185.331762
30
0.0
10
26.542949
20
180.198150
30
0.0
10
24.371339
20
175.820537
30
0.0
10
23.034035
20
173.667372
30
0.0
10
21.686266
20
171.892334
30
0.0
10
20.321401
20
170.487647
30
0.0
10
18.932804
20
169.445535
30
0.0
10
16.540029
20
168.247526
30
0.0
10
14.066672
20
167.300844
30
0.0
10
12.687330
20
167.081238
30
0.0
10
10.549001
20
166.956930
30
0.0
10
4.677111
20
167.014958
30
0.0
10
-6.126328
20
167.304188
30
0.0
10
-8.146739
20
167.187363
30
0.0
10
-9.731181
20
166.815560
30
0.0
10
-11.130867
20
166.196094
30
0.0
10
-12.329862
20
165.356529
30
0.0
10
-13.334980
20
164.290973
30
0.0
10
-14.153038
20
162.993537
30
0.0
10
-14.735934
20
161.607889
30
0.0
10
-15.266066
20
159.713087
30
0.0
10
-16.454871
20
153.172204
30
0.0
10
-16.999729
20
149.954870
30
0.0
10
-17.675129
20
145.813437
30
0.0
10
-17.785549
20
143.955509
30
0.0
10
-17.555315
20
142.423805
30
0.0
10
-17.032495
20
140.902370
30
0.0
10
-15.981140
20
139.002601
30
0.0
10
-15.433740
20
138.413217
30
0.0
10
-14.833222
20
138.013416
30
0.0
10
-14.042661
20
137.462134
30
0.0
10
-13.339601
20
136.985444
30
0.0
10
-12.113372
20
136.418027
30
0.0
10
-7.946661
20
134.951404
30
0.0
10
-4.771661
20
133.905322
30
0.0
10
-0.749994
20
132.639860
30
0.0
10
4.093549
20
131.064953
30
0.0
10
5.798304
20
130.368336
30
0.0
10
6.937626
20
129.764969
30
0.0
10
8.655029
20
128.376278
30
0.0
10
10.372895
20
126.561441
30
0.0
10
11.820891
20
124.639536
30
0.0
10
12.728685
20
122.929643
30
0.0
10
14.224886
20
117.518641
30
0.0
10
15.813289
20
110.465160
30
0.0
10
16.022335
20
109.166873
30
0.0
10
16.026339
20
107.960204
30
0.0
10
15.671021
20
105.380520
30
0.0
10
14.749029
20
102.678257
30
0.0
10
13.996526
20
101.165599
30
0.0
10
13.076912
20
99.716497
30
0.0
10
12.036150
20
98.395899
30
0.0
10
10.920205
20
97.268751
30
0.0
10
8.902005
20
95.639874
30
0.0
10
-1.293159
20
87.540466
30
0.0
10
-3.774598
20
85.408864
30
0.0
10
-4.534557
20
84.437563
30
0.0
10
-5.106821
20
83.345853
30
0.0
10
-5.489938
20
82.153342
30
0.0
10
-5.682459
20
80.879640
30
0.0
10
-5.682934
20
79.544355
30
0.0
10
-5.489912
20
78.167095
30
0.0
10
-5.101943
20
76.767469
30
0.0
10
-4.517577
20
75.365086
30
0.0
10
-3.771635
20
73.924204
30
0.0
10
-2.655841
20
71.976870
30
0.0
10
2.154072
20
63.602533
30
0.0
10
3.005261
20
62.257394
30
0.0
10
3.724159
20
61.378111
30
0.0
10
4.577078
20
60.599351
30
0.0
10
5.553619
20
59.921643
30
0.0
10
6.610841
20
59.370919
30
0.0
10
7.705807
20
58.973112
30
0.0
10
9.123479
20
58.778441
30
0.0
10
10.468339
20
58.777159
30
0.0
10
10.468367
20
58.777015
30
0.0
62
0
0
LWPOLYLINE
100
AcDbPolyline
8
0
90
525
70
0
10
73.333356
20
72.782770
30
0.0
10
77.154091
20
73.295107
30
0.0
10
80.783498
20
74.156763
30
0.0
10
84.291892
20
75.388359
30
0.0
10
87.749592
20
77.010515
30
0.0
10
91.680764
20
79.391494
30
0.0
10
95.440025
20
82.262824
30
0.0
10
98.885404
20
85.504052
30
0.0
10
101.874930
20
88.994726
30
0.0
10
103.485798
20
91.301940
30
0.0
10
104.976591
20
93.809290
30
0.0
10
106.310317
20
96.449358
30
0.0
10
107.449984
20
99.154726
30
0.0
10
108.763956
20
103.053686
30
0.0
10
109.909856
20
107.706060
30
0.0
10
110.987025
20
112.072066
30
0.0
10
112.106956
20
115.199060
30
0.0
10
113.315394
20
117.769092
30
0.0
10
114.691073
20
120.187796
30
0.0
10
116.232561
20
122.453544
30
0.0
10
117.938426
20
124.564706
30
0.0
10
119.807237
20
126.519655
30
0.0
10
121.837561
20
128.316761
30
0.0
10
124.027967
20
129.954396
30
0.0
10
126.377023
20
131.430930
30
0.0
10
128.502798
20
132.547560
30
0.0
10
130.674466
20
133.482105
30
0.0
10
132.884410
20
134.232967
30
0.0
10
135.125012
20
134.798551
30
0.0
10
137.388658
20
135.177258
30
0.0
10
139.667730
20
135.367493
30
0.0
10
141.954613
20
135.367659
30
0.0
10
144.241689
20
135.176160
30
0.0
10
147.690194
20
134.543665
30
0.0
10
151.025794
20
133.544453
30
0.0
10
154.152503
20
132.213139
30
0.0
10
156.974334
20
130.584339
30
0.0
10
158.763574
20
129.262168
30
0.0
10
160.543158
20
127.606723
30
0.0
10
161.912261
20
126.138547
30
0.0
10
163.101813
20
124.643098
30
0.0
10
164.154264
20
123.062130
30
0.0
10
165.112065
20
121.337393
30
0.0
10
166.363593
20
118.563888
30
0.0
10
167.287358
20
115.807092
30
0.0
10
167.883125
20
113.073108
30
0.0
10
168.150660
20
110.368042
30
0.0
10
168.089727
20
107.697999
30
0.0
10
167.700093
20
105.069085
30
0.0
10
166.981522
20
102.487403
30
0.0
10
165.933780
20
99.959060
30
0.0
10
164.503132
20
97.404381
30
0.0
10
162.840517
20
95.154902
30
0.0
10
160.956758
20
93.223382
30
0.0
10
158.862677
20
91.622585
30
0.0
10
156.497110
20
90.380388
30
0.0
10
153.851356
20
89.466735
30
0.0
10
150.585692
20
88.962080
30
0.0
10
147.416689
20
88.946433
30
0.0
10
144.984304
20
89.390690
30
0.0
10
142.845248
20
90.206507
30
0.0
10
140.843022
20
91.472563
30
0.0
10
138.821126
20
93.267531
30
0.0
10
137.208316
20
95.117242
30
0.0
10
136.184757
20
96.954594
30
0.0
10
135.644947
20
99.044631
30
0.0
10
135.483380
20
101.652393
30
0.0
10
135.510901
20
103.295335
30
0.0
10
135.673829
20
104.192393
30
0.0
10
136.081038
20
105.358614
30
0.0
10
136.612753
20
106.293222
30
0.0
10
137.281799
20
107.013897
30
0.0
10
138.101002
20
107.538318
30
0.0
10
139.370204
20
107.992602
30
0.0
10
140.768172
20
108.063836
30
0.0
10
142.702732
20
107.742863
30
0.0
10
143.426557
20
107.404095
30
0.0
10
144.022555
20
106.934509
30
0.0
10
144.595834
20
106.131579
30
0.0
10
144.971279
20
104.726657
30
0.0
10
145.263957
20
103.620305
30
0.0
10
145.665286
20
102.813188
30
0.0
10
146.235714
20
102.218081
30
0.0
10
147.035689
20
101.747762
30
0.0
10
148.442404
20
101.481038
30
0.0
10
149.975197
20
101.642343
30
0.0
10
151.178456
20
102.179477
30
0.0
10
152.306067
20
103.021143
30
0.0
10
153.350927
20
104.160864
30
0.0
10
154.305931
20
105.592162
30
0.0
10
154.723921
20
106.555923
30
0.0
10
155.032074
20
107.742312
30
0.0
10
155.202132
20
109.006517
30
0.0
10
155.205836
20
110.203726
30
0.0
10
154.855255
20
112.346559
30
0.0
10
154.066994
20
114.394726
30
0.0
10
152.660371
20
116.650479
30
0.0
10
150.784012
20
118.581268
30
0.0
10
148.491555
20
120.142167
30
0.0
10
145.836640
20
121.288253
30
0.0
10
143.866740
20
121.785210
30
0.0
10
141.820689
20
122.016194
30
0.0
10
139.732876
20
121.979588
30
0.0
10
137.637689
20
121.673774
30
0.0
10
135.867502
20
121.173084
30
0.0
10
134.066690
20
120.415568
30
0.0
10
132.252210
20
119.409500
30
0.0
10
130.441023
20
118.163155
30
0.0
10
128.492323
20
116.386620
30
0.0
10
126.740023
20
114.437060
30
0.0
10
125.312775
20
112.210932
30
0.0
10
124.178331
20
109.771339
30
0.0
10
123.330932
20
107.103440
30
0.0
10
122.764821
20
104.192393
30
0.0
10
122.607618
20
100.974752
30
0.0
10
122.762845
20
97.842588
30
0.0
10
123.350282
20
95.089814
30
0.0
10
124.260819
20
92.339060
30
0.0
10
126.423290
20
88.102848
30
0.0
10
128.489763
20
85.243943
30
0.0
10
130.978943
20
82.684085
30
0.0
10
133.871916
20
80.440153
30
0.0
10
137.149769
20
78.529029
30
0.0
10
139.380301
20
77.536384
30
0.0
10
141.691607
20
76.754065
30
0.0
10
144.070538
20
76.183412
30
0.0
10
146.503944
20
75.825767
30
0.0
10
148.978677
20
75.682474
30
0.0
10
151.481587
20
75.754874
30
0.0
10
153.999526
20
76.044309
30
0.0
10
156.519344
20
76.552122
30
0.0
10
159.981316
20
77.620652
30
0.0
10
163.266586
20
79.095579
30
0.0
10
166.437627
20
81.009697
30
0.0
10
169.556910
20
83.395796
30
0.0
10
170.952125
20
84.450278
30
0.0
10
171.995242
20
84.879190
30
0.0
10
172.761736
20
84.976307
30
0.0
10
173.541169
20
84.923719
30
0.0
10
175.557513
20
84.301543
30
0.0
10
180.394243
20
82.285647
30
0.0
10
182.609075
20
81.472593
30
0.0
10
183.279375
20
81.418014
30
0.0
10
183.951634
20
81.536270
30
0.0
10
184.847073
20
81.836528
30
0.0
10
185.555347
20
82.275514
30
0.0
10
186.179879
20
82.938760
30
0.0
10
186.824092
20
83.911797
30
0.0
10
189.574732
20
88.740726
30
0.0
10
189.874847
20
89.450759
30
0.0
10
189.918907
20
90.349393
30
0.0
10
189.878355
20
91.227027
30
0.0
10
189.643001
20
91.844716
30
0.0
10
189.251061
20
92.513493
30
0.0
10
188.649133
20
93.199076
30
0.0
10
185.991506
20
95.429393
30
0.0
10
182.665411
20
98.216365
30
0.0
10
181.845301
20
99.094021
30
0.0
10
181.338355
20
99.864953
30
0.0
10
180.911261
20
100.862637
30
0.0
10
180.696758
20
101.922400
30
0.0
10
180.681035
20
103.183466
30
0.0
10
180.850280
20
104.785060
30
0.0
10
181.139700
20
107.353696
30
0.0
10
181.237817
20
109.733232
30
0.0
10
181.144826
20
112.104598
30
0.0
10
180.860920
20
114.648726
30
0.0
10
180.110776
20
118.563171
30
0.0
10
178.989347
20
122.356091
30
0.0
10
177.517554
20
125.967745
30
0.0
10
175.716319
20
129.338393
30
0.0
10
174.460749
20
131.270487
30
0.0
10
172.834574
20
133.444726
30
0.0
10
171.248311
20
135.293220
30
0.0
10
169.289269
20
137.295384
30
0.0
10
167.193377
20
139.222595
30
0.0
10
165.196568
20
140.846227
30
0.0
10
162.869558
20
142.437499
30
0.0
10
160.582235
20
143.767608
30
0.0
10
159.862568
20
144.155322
30
0.0
10
156.772235
20
145.574454
30
0.0
10
152.846975
20
146.969027
30
0.0
10
148.728901
20
147.975025
30
0.0
10
145.110180
20
148.495018
30
0.0
10
141.469508
20
148.687240
30
0.0
10
137.775534
20
148.551934
30
0.0
10
133.996901
20
148.089342
30
0.0
10
131.176912
20
147.522414
30
0.0
10
127.858568
20
146.524372
30
0.0
10
124.193683
20
145.400843
30
0.0
10
121.296901
20
144.712505
30
0.0
10
118.032878
20
144.236637
30
0.0
10
114.646090
20
144.078272
30
0.0
10
111.303875
20
144.237377
30
0.0
10
108.173568
20
144.713916
30
0.0
10
104.597036
20
145.688146
30
0.0
10
101.188316
20
147.043659
30
0.0
10
97.949119
20
148.779658
30
0.0
10
94.881155
20
150.895345
30
0.0
10
92.087633
20
153.456670
30
0.0
10
89.491436
20
156.431571
30
0.0
10
87.235494
20
159.956379
30
0.0
10
85.444454
20
163.675084
30
0.0
10
84.978407
20
164.864922
30
0.0
10
84.244621
20
167.420552
30
0.0
10
83.647303
20
170.570905
30
0.0
10
83.490201
20
174.023086
30
0.0
10
83.645609
20
177.540622
30
0.0
10
84.035078
20
179.882685
30
0.0
10
84.605124
20
182.131790
30
0.0
10
85.353755
20
184.284004
30
0.0
10
86.278978
20
186.335393
30
0.0
10
87.378801
20
188.282023
30
0.0
10
88.651232
20
190.119962
30
0.0
10
90.094280
20
191.845275
30
0.0
10
91.705952
20
193.454030
30
0.0
10
93.433000
20
194.905994
30
0.0
10
95.209737
20
196.149154
30
0.0
10
97.041275
20
197.185449
30
0.0
10
98.932728
20
198.016819
30
0.0
10
100.889209
20
198.645205
30
0.0
10
102.915832
20
199.072545
30
0.0
10
105.017708
20
199.300779
30
0.0
10
107.199952
20
199.331847
30
0.0
10
109.950256
20
199.080999
30
0.0
10
112.522639
20
198.498296
30
0.0
10
114.921967
20
197.582269
30
0.0
10
117.153111
20
196.331452
30
0.0
10
118.493758
20
195.340205
30
0.0
10
119.741122
20
194.204858
30
0.0
10
120.883354
20
192.942885
30
0.0
10
121.908605
20
191.571761
30
0.0
10
122.805026
20
190.108960
30
0.0
10
123.560767
20
188.571957
30
0.0
10
124.163979
20
186.978224
30
0.0
10
124.602813
20
185.345238
30
0.0
10
124.830139
20
183.023217
30
0.0
10
124.772705
20
180.713316
30
0.0
10
124.303008
20
178.618062
30
0.0
10
123.531289
20
176.622612
30
0.0
10
122.503855
20
174.824603
30
0.0
10
121.267014
20
173.321674
30
0.0
10
119.506491
20
171.893296
30
0.0
10
117.665077
20
171.005201
30
0.0
10
115.820411
20
170.682883
30
0.0
10
114.921119
20
170.741858
30
0.0
10
114.050129
20
170.951837
30
0.0
10
112.868355
20
171.479214
30
0.0
10
111.959065
20
172.078022
30
0.0
10
111.393804
20
172.905743
30
0.0
10
110.962141
20
174.018828
30
0.0
10
110.737421
20
175.609359
30
0.0
10
110.827394
20
176.930269
30
0.0
10
111.302212
20
177.884513
30
0.0
10
112.160259
20
179.079905
30
0.0
10
112.786085
20
180.086628
30
0.0
10
113.127228
20
181.073979
30
0.0
10
113.049503
20
182.016552
30
0.0
10
112.647161
20
183.093953
30
0.0
10
112.004130
20
184.136019
30
0.0
10
111.204338
20
184.972586
30
0.0
10
109.958702
20
185.702990
30
0.0
10
108.508602
20
186.230750
30
0.0
10
107.468552
20
186.386956
30
0.0
10
106.327242
20
186.400919
30
0.0
10
105.187449
20
186.277568
30
0.0
10
104.151952
20
186.021832
30
0.0
10
102.445923
20
185.245677
30
0.0
10
100.858436
20
184.141509
30
0.0
10
99.489541
20
182.792354
30
0.0
10
98.439289
20
181.281238
30
0.0
10
97.689518
20
179.797628
30
0.0
10
97.180660
20
178.444905
30
0.0
10
96.557068
20
175.655914
30
0.0
10
96.494932
20
172.917634
30
0.0
10
96.994846
20
170.222639
30
0.0
10
98.057408
20
167.563502
30
0.0
10
99.004156
20
165.912748
30
0.0
10
100.100971
20
164.380800
30
0.0
10
101.336113
20
162.977509
30
0.0
10
102.697839
20
161.712725
30
0.0
10
104.174410
20
160.596299
30
0.0
10
105.754083
20
159.638082
30
0.0
10
107.425119
20
158.847923
30
0.0
10
109.175776
20
158.235674
30
0.0
10
112.237699
20
157.597114
30
0.0
10
115.497285
20
157.475266
30
0.0
10
118.637144
20
157.814835
30
0.0
10
121.674074
20
158.636662
30
0.0
10
124.628277
20
159.947937
30
0.0
10
127.519952
20
161.755851
30
0.0
10
129.543099
20
163.381667
30
0.0
10
131.355379
20
165.199924
30
0.0
10
132.953289
20
167.204353
30
0.0
10
134.333324
20
169.388683
30
0.0
10
135.491981
20
171.746644
30
0.0
10
136.425756
20
174.271966
30
0.0
10
137.131144
20
176.958379
30
0.0
10
137.604641
20
179.799614
30
0.0
10
137.757544
20
182.922247
30
0.0
10
137.609298
20
186.017677
30
0.0
10
137.212195
20
188.406850
30
0.0
10
136.614410
20
190.722373
30
0.0
10
135.802614
20
193.007761
30
0.0
10
134.763473
20
195.306525
30
0.0
10
133.468333
20
197.671809
30
0.0
10
132.026031
20
199.869411
30
0.0
10
130.435796
20
201.900087
30
0.0
10
128.696857
20
203.764596
30
0.0
10
126.808444
20
205.463693
30
0.0
10
124.769786
20
206.998137
30
0.0
10
122.580113
20
208.368683
30
0.0
10
120.238653
20
209.576090
30
0.0
10
116.566846
20
211.066531
30
0.0
10
115.682387
20
211.558307
30
0.0
10
114.938711
20
212.301628
30
0.0
10
114.349817
20
213.278421
30
0.0
10
113.929708
20
214.470614
30
0.0
10
113.087884
20
220.081507
30
0.0
10
112.744264
20
222.562509
30
0.0
10
112.444385
20
223.537633
30
0.0
10
112.019035
20
224.340891
30
0.0
10
111.471765
20
224.967064
30
0.0
10
110.806126
20
225.410933
30
0.0
10
110.332653
20
225.640574
30
0.0
10
106.564986
20
225.714338
30
0.0
10
102.354123
20
225.699296
30
0.0
10
101.586545
20
225.451879
30
0.0
10
100.904314
20
225.046358
30
0.0
10
100.339714
20
224.507194
30
0.0
10
99.925028
20
223.858846
30
0.0
10
99.473366
20
222.409840
30
0.0
10
99.073044
20
219.481559
30
0.0
10
98.629722
20
215.985626
30
0.0
10
98.192087
20
213.766372
30
0.0
10
97.644893
20
212.404754
30
0.0
10
96.872896
20
211.481733
30
0.0
10
96.366694
20
211.106403
30
0.0
10
95.674558
20
210.835842
30
0.0
10
92.871259
20
209.795846
30
0.0
10
90.396184
20
208.635079
30
0.0
10
89.666662
20
208.247619
30
0.0
10
87.472653
20
206.908907
30
0.0
10
85.173800
20
205.241534
30
0.0
10
82.945806
20
203.332558
30
0.0
10
80.821751
20
201.212601
30
0.0
10
78.834714
20
198.912289
30
0.0
10
76.744683
20
196.023511
30
0.0
10
74.495646
20
192.106901
30
0.0
10
72.727021
20
187.853233
30
0.0
10
71.422728
20
183.215980
30
0.0
10
70.566684
20
178.148619
30
0.0
10
70.451718
20
173.921251
30
0.0
10
70.565272
20
169.724286
30
0.0
10
71.210845
20
165.726835
30
0.0
10
72.135119
20
162.011224
30
0.0
10
73.371833
20
158.464067
30
0.0
10
74.954723
20
154.971974
30
0.0
10
76.995636
20
151.350639
30
0.0
10
79.363006
20
147.981520
30
0.0
10
82.168892
20
144.721007
30
0.0
10
85.525356
20
141.425494
30
0.0
10
89.043897
20
137.913989
30
0.0
10
90.413648
20
136.258442
30
0.0
10
91.693594
20
134.478374
30
0.0
10
93.729395
20
131.029074
30
0.0
10
95.332991
20
127.339943
30
0.0
10
96.510199
20
123.395005
30
0.0
10
97.266836
20
119.178286
30
0.0
10
97.380189
20
115.620171
30
0.0
10
97.265990
20
112.066286
30
0.0
10
96.882710
20
109.609393
30
0.0
10
96.368976
20
107.298998
30
0.0
10
95.715120
20
105.112722
30
0.0
10
94.911477
20
103.028189
30
0.0
10
93.948379
20
101.023022
30
0.0
10
92.816160
20
99.074845
30
0.0
10
91.505151
20
97.161281
30
0.0
10
90.005687
20
95.259952
30
0.0
10
88.750552
20
93.892082
30
0.0
10
87.315710
20
92.590024
30
0.0
10
83.493204
20
89.838974
30
0.0
10
79.386870
20
87.787112
30
0.0
10
77.292024
20
87.065421
30
0.0
10
75.220417
20
86.555551
30
0.0
10
73.079751
20
86.239403
30
0.0
10
70.777727
20
86.098875
30
0.0
10
67.644583
20
86.177146
30
0.0
10
64.756589
20
86.580698
30
0.0
10
62.046700
20
87.323262
30
0.0
10
59.447870
20
88.418564
30
0.0
10
57.420528
20
89.574870
30
0.0
10
55.516450
20
90.954535
30
0.0
10
53.758627
20
92.529640
30
0.0
10
52.170051
20
94.272264
30
0.0
10
50.773711
20
96.154488
30
0.0
10
49.592598
20
98.148391
30
0.0
10
48.649704
20
100.226054
30
0.0
10
47.968019
20
102.359557
30
0.0
10
47.553332
20
104.634582
30
0.0
10
47.424086
20
107.013209
30
0.0
10
47.580025
20
109.449359
30
0.0
10
48.020893
20
111.896952
30
0.0
10
48.713805
20
114.183157
30
0.0
10
49.765644
20
116.228271
30
0.0
10
50.943197
20
117.989333
30
0.0
10
52.214776
20
119.503081
30
0.0
10
53.587181
20
120.773554
30
0.0
10
55.067210
20
121.804793
30
0.0
10
56.661661
20
122.600839
30
0.0
10
58.377334
20
123.165732
30
0.0
10
60.221026
20
123.503513
30
0.0
10
62.199537
20
123.618223
30
0.0
10
64.120569
20
123.513810
30
0.0
10
65.713204
20
123.096685
30
0.0
10
66.894771
20
122.565106
30
0.0
10
68.120853
20
121.825837
30
0.0
10
69.248795
20
120.975225
30
0.0
10
70.135945
20
120.109619
30
0.0
10
70.798014
20
119.143313
30
0.0
10
71.265929
20
118.032814
30
0.0
10
71.530000
20
116.809030
30
0.0
10
71.580536
20
115.502872
30
0.0
10
71.506239
20
114.718268
30
0.0
10
71.321845
20
114.161921
30
0.0
10
70.680924
20
113.241848
30
0.0
10
69.754716
20
112.565430
30
0.0
10
68.689009
20
112.288406
30
0.0
10
66.983204
20
112.515934
30
0.0
10
65.318270
20
112.788782
30
0.0
10
64.226829
20
112.750519
30
0.0
10
62.511309
20
112.267027
30
0.0
10
61.848335
20
111.860212
30
0.0
10
61.240340
20
111.307164
30
0.0
10
60.517324
20
110.339387
30
0.0
10
60.053696
20
109.259643
30
0.0
10
59.859553
20
108.102273
30
0.0
10
59.944991
20
106.901619
30
0.0
10
60.393352
20
105.244433
30
0.0
10
61.076049
20
103.786730
30
0.0
10
61.995229
20
102.524865
30
0.0
10
63.153036
20
101.455190
30
0.0
10
64.684830
20
100.500283
30
0.0
10
66.427768
20
99.790909
30
0.0
10
68.312373
20
99.349116
30
0.0
10
70.269168
20
99.196952
30
0.0
10
72.716558
20
99.460339
30
0.0
10
75.060854
20
100.258732
30
0.0
10
77.328624
20
101.604482
30
0.0
10
79.546433
20
103.509940
30
0.0
10
81.313415
20
105.623292
30
0.0
10
82.705113
20
108.046500
30
0.0
10
83.683106
20
110.697299
30
0.0
10
84.208976
20
113.493427
30
0.0
10
84.311045
20
115.292430
30
0.0
10
84.252811
20
117.074540
30
0.0
10
84.035017
20
118.836932
30
0.0
10
83.658408
20
120.576782
30
0.0
10
83.123731
20
122.291267
30
0.0
10
82.431728
20
123.977561
30
0.0
10
81.583147
20
125.632842
30
0.0
10
80.578731
20
127.254284
30
0.0
10
79.225783
20
129.031236
30
0.0
10
77.678749
20
130.646666
30
0.0
10
75.949347
20
132.093590
30
0.0
10
74.049293
20
133.365021
30
0.0
10
71.990303
20
134.453974
30
0.0
10
69.784094
20
135.353464
30
0.0
10
67.442382
20
136.056504
30
0.0
10
64.976883
20
136.556111
30
0.0
10
63.556091
20
136.712222
30
0.0
10
61.352870
20
136.742572
30
0.0
10
57.806951
20
136.563222
30
0.0
10
54.497359
20
135.757653
30
0.0
10
51.577368
20
134.647786
30
0.0
10
48.926394
20
133.260241
30
0.0
10
48.436310
20
132.978952
30
0.0
10
47.612452
20
132.456957
30
0.0
10
44.916549
20
130.443911
30
0.0
10
42.518945
20
128.215051
30
0.0
10
40.427482
20
125.778527
30
0.0
10
38.650003
20
123.142489
30
0.0
10
37.156597
20
120.219767
30
0.0
10
35.946637
20
117.008331
30
0.0
10
35.053468
20
113.612937
30
0.0
10
34.510438
20
110.138341
30
0.0
10
34.421774
20
106.958474
30
0.0
10
34.558605
20
103.853619
30
0.0
10
34.743045
20
101.722800
30
0.0
10
34.685994
20
100.372422
30
0.0
10
34.317735
20
99.339916
30
0.0
10
33.672823
20
98.333060
30
0.0
10
32.716452
20
97.307682
30
0.0
10
31.413814
20
96.219607
30
0.0
10
27.340957
20
93.016828
30
0.0
10
26.495400
20
92.208401
30
0.0
10
26.071669
20
91.607365
30
0.0
10
25.668709
20
90.607637
30
0.0
10
25.538870
20
89.621796
30
0.0
10
25.709109
20
88.535401
30
0.0
10
26.259333
20
87.382642
30
0.0
10
28.332870
20
83.664311
30
0.0
10
29.339163
20
82.071575
30
0.0
10
29.886555
20
81.581811
30
0.0
10
30.550409
20
81.199799
30
0.0
10
31.289310
20
80.910321
30
0.0
10
32.227537
20
80.866619
30
0.0
10
33.391939
20
80.976002
30
0.0
10
35.952870
20
82.050014
30
0.0
10
40.778870
20
83.925558
30
0.0
10
42.133537
20
84.083690
30
0.0
10
42.902540
20
84.041310
30
0.0
10
43.510728
20
83.854722
30
0.0
10
44.971276
20
82.692227
30
0.0
10
47.222454
20
80.701409
30
0.0
10
49.430267
20
79.016927
30
0.0
10
51.694233
20
77.569069
30
0.0
10
54.113870
20
76.288125
30
0.0
10
56.947934
20
75.064187
30
0.0
10
59.840097
20
74.115841
30
0.0
10
62.917147
20
73.407906
30
0.0
10
66.305870
20
72.905201
30
0.0
10
69.856716
20
72.742237
30
0.0
10
73.333204
20
72.782663
30
0.0
10
73.333356
20
72.782770
30
0.0
62
0
0
LWPOLYLINE
100
AcDbPolyline
8
0
90
6
70
0
10
47.383023
20
77.049013
30
0.0
10
47.256023
20
77.183726
30
0.0
10
47.129023
20
77.203143
30
0.0
10
47.256023
20
77.068439
30
0.0
10
47.383023
20
77.049022
30
0.0
10
47.383023
20
77.049013
30
0.0
  0
ENDSEC
  0
SECTION
  2
OBJECTS
  0
DICTIONARY
  5
C
330
0
100
AcDbDictionary
  3
ACAD_GROUP
350
D
  3
ACAD_MLINESTYLE
350
17
  0
DICTIONARY
  5
D
330
C
100
AcDbDictionary
  0
DICTIONARY
  5
1A
330
C
100
AcDbDictionary
  0
DICTIONARY
  5
17
330
C
100
AcDbDictionary
  3
STANDARD
350
18
  0
DICTIONARY
  5
19
330
C
100
AcDbDictionary
  0
ENDSEC
  0
EOF
